<svg width="38" height="37" viewBox="0 0 38 37" fill="none" xmlns="http://www.w3.org/2000/svg">
<path d="M20.8156 33.1121V33.6917L21.3889 33.6067C28.9284 32.4894 34.7 26.1886 34.7 18.5C34.7 10.0156 27.6807 3.2 19 3.2C10.3193 3.2 3.3 10.0156 3.3 18.5C3.3 26.1038 8.94495 32.3516 16.3622 33.5694L16.9432 33.6648V33.076V22.9118V22.4118H16.4432H12.7127V19.0361H16.4432H16.9432V18.5361V15.6238C16.9432 13.2905 17.5266 11.704 18.5194 10.6985C19.5113 9.69398 20.9936 9.18633 22.9707 9.18633C24.4545 9.18633 25.3998 9.26734 25.9775 9.33365V12.2115H23.6721C22.6088 12.2115 21.8614 12.7195 21.4072 13.4926C20.9725 14.2326 20.8156 15.1929 20.8156 16.1441V18.5361V19.0361H21.3156H25.8475L25.3121 22.4118H21.3156H20.8156V22.9118V33.1121ZM0.5 18.5C0.5 8.59327 8.79258 0.5 19 0.5C29.2074 0.5 37.5 8.59327 37.5 18.5C37.5 28.4067 29.2074 36.5 19 36.5C8.79258 36.5 0.5 28.4067 0.5 18.5Z" fill="white" stroke="#CA5310"/>
</svg>
