<svg width="24" height="25" viewBox="0 0 24 25" fill="none" xmlns="http://www.w3.org/2000/svg">
<path d="M23.2526 3.16C23.3927 3.30059 23.4714 3.491 23.4714 3.6895C23.4714 3.88801 23.3927 4.07842 23.2526 4.219L21.6881 5.785L18.6881 2.785L20.2526 1.219C20.3932 1.0784 20.584 0.999413 20.7828 0.999413C20.9817 0.999413 21.1724 1.0784 21.3131 1.219L23.2526 3.1585V3.16ZM20.6276 6.844L17.6276 3.844L7.40807 14.065C7.32552 14.1475 7.26337 14.2482 7.22657 14.359L6.01907 17.98C5.99717 18.046 5.99407 18.1168 6.01009 18.1845C6.02612 18.2522 6.06066 18.3141 6.10984 18.3632C6.15901 18.4124 6.2209 18.447 6.28858 18.463C6.35626 18.479 6.42706 18.4759 6.49307 18.454L10.1141 17.2465C10.2247 17.2101 10.3254 17.1485 10.4081 17.0665L20.6276 6.844Z" fill="black"/>
<path fill-rule="evenodd" clip-rule="evenodd" d="M1.5 20.5C1.5 21.0967 1.73705 21.669 2.15901 22.091C2.58097 22.5129 3.15326 22.75 3.75 22.75H20.25C20.8467 22.75 21.419 22.5129 21.841 22.091C22.2629 21.669 22.5 21.0967 22.5 20.5V11.5C22.5 11.3011 22.421 11.1103 22.2803 10.9697C22.1397 10.829 21.9489 10.75 21.75 10.75C21.5511 10.75 21.3603 10.829 21.2197 10.9697C21.079 11.1103 21 11.3011 21 11.5V20.5C21 20.6989 20.921 20.8897 20.7803 21.0303C20.6397 21.171 20.4489 21.25 20.25 21.25H3.75C3.55109 21.25 3.36032 21.171 3.21967 21.0303C3.07902 20.8897 3 20.6989 3 20.5V4C3 3.80109 3.07902 3.61032 3.21967 3.46967C3.36032 3.32902 3.55109 3.25 3.75 3.25H13.5C13.6989 3.25 13.8897 3.17098 14.0303 3.03033C14.171 2.88968 14.25 2.69891 14.25 2.5C14.25 2.30109 14.171 2.11032 14.0303 1.96967C13.8897 1.82902 13.6989 1.75 13.5 1.75H3.75C3.15326 1.75 2.58097 1.98705 2.15901 2.40901C1.73705 2.83097 1.5 3.40326 1.5 4V20.5Z" fill="black"/>
</svg>
