<svg width="57" height="81" viewBox="0 0 57 81" fill="none" xmlns="http://www.w3.org/2000/svg">
<g clip-path="url(#clip0_660_1340)">
<path d="M14.0682 26.6625C14.7083 26.6625 15.2272 27.1814 15.2272 27.8215C15.2272 28.4617 14.7083 28.9805 14.0682 28.9805C10.3595 28.9805 6.91382 26.9764 5.07607 23.7505C4.75928 23.1944 4.95335 22.4867 5.5094 22.1698C6.06571 21.8529 6.7732 22.047 7.09012 22.6032C8.51669 25.1071 11.1903 26.6625 14.0682 26.6625ZM14.0039 37.7894V46.1643C14.0039 46.8044 14.5228 47.3233 15.1629 47.3233C15.8031 47.3233 16.3219 46.8044 16.3219 46.1643V37.7894C16.3219 37.1492 15.8031 36.6304 15.1629 36.6304C14.5228 36.6304 14.0039 37.1492 14.0039 37.7894ZM31.2067 27.8215C31.2067 28.4617 31.7255 28.9805 32.3656 28.9805C34.4824 28.9805 36.518 28.345 38.2521 27.1427C38.7781 26.7781 38.909 26.056 38.5443 25.53C38.1796 25.0038 37.4574 24.873 36.9315 25.2378C35.5872 26.1698 34.0084 26.6624 32.3658 26.6624C31.7255 26.6625 31.2067 27.1814 31.2067 27.8215ZM37.2279 36.5209C36.5878 36.5209 36.069 37.0398 36.069 37.6799V48.8307C35.8423 49.0723 34.858 49.6652 32.3091 50.1736C29.8957 50.655 26.7893 50.9201 23.5618 50.9201C20.3344 50.9201 17.228 50.655 14.8146 50.1736C12.2659 49.6653 11.2814 49.0723 11.0549 48.8307V33.9803C11.491 34.0271 11.9335 34.051 12.382 34.051C15.2028 34.051 17.9633 33.0767 20.1544 31.3073C20.6524 30.9053 20.7301 30.1757 20.328 29.6776C19.9259 29.1797 19.1963 29.1014 18.6982 29.504C16.8922 30.9622 14.7081 31.7331 12.382 31.7331C6.83269 31.7331 2.31796 27.2183 2.31796 21.6691C2.31796 16.12 6.83269 11.6055 12.3819 11.6055C12.6994 11.6055 13.0252 11.6212 13.3505 11.6521C13.8328 11.6977 14.2918 11.44 14.5029 11.0047C16.2027 7.50424 19.6737 5.32986 23.5616 5.32986C27.4498 5.32986 30.9209 7.50437 32.6206 11.0045C32.8319 11.4397 33.2914 11.6981 33.773 11.652C34.0975 11.6212 34.4233 11.6055 34.7415 11.6055C35.3817 11.6055 35.9005 11.0866 35.9005 10.4465C35.9005 9.80636 35.3817 9.28752 34.7415 9.28752C34.6081 9.28752 34.4738 9.28984 34.3389 9.29422C33.3434 7.53746 31.9319 6.04714 30.2208 4.95345C28.2331 3.68334 25.9306 3.01191 23.5616 3.01191C21.193 3.01191 18.8904 3.68334 16.9028 4.95371C15.1916 6.04727 13.7801 7.53759 12.7847 9.29422C12.6496 9.28984 12.5152 9.28752 12.3819 9.28752C5.5546 9.28739 0 14.8419 0 21.6691C0 27.2285 3.68285 31.9439 8.7369 33.5036V48.951C8.7369 50.4444 10.3407 51.5374 13.6399 52.2926C16.3035 52.9021 19.827 53.2379 23.5618 53.2379C27.2967 53.2379 30.8203 52.9022 33.4839 52.2926C36.7831 51.5374 38.3869 50.4443 38.3869 48.951V37.6799C38.3869 37.0398 37.8681 36.5209 37.2279 36.5209ZM49.9141 8.00504C49.274 8.00504 48.7551 8.52388 48.7551 9.16402V17.5389C48.7551 18.1791 49.274 18.6979 49.9141 18.6979C50.5543 18.6979 51.0731 18.1791 51.0731 17.5389V9.16402C51.0731 8.52388 50.5543 8.00504 49.9141 8.00504ZM41.1303 29.4456C39.3373 30.9206 37.0684 31.7331 34.7417 31.7331C32.4157 31.7331 30.2317 30.9624 28.4254 29.5038C27.9275 29.1018 27.1976 29.1797 26.7956 29.6777C26.3935 30.1757 26.4712 30.9053 26.9694 31.3075C29.1608 33.0766 31.921 34.051 34.7417 34.051C37.6042 34.051 40.3961 33.0512 42.603 31.2357C43.0974 30.8292 43.1685 30.0988 42.7617 29.6044C42.355 29.1099 41.6246 29.0388 41.1303 29.4456ZM56.25 5.18345V21.2808C56.25 23.524 52.6421 24.6392 48.7402 24.8213V42.1323C50.0972 42.6114 51.0723 43.9067 51.0723 45.4258V50.9041C51.0723 52.8291 49.5062 54.3951 47.5812 54.3951C45.656 54.3951 44.09 52.8291 44.09 50.9041V45.4258C44.09 43.9066 45.0651 42.6111 46.4222 42.1323V24.8213C42.5202 24.6392 38.9123 23.524 38.9123 21.2808V5.18345C38.9123 4.91778 39.0017 4.67272 39.1522 4.47737C40.1757 2.55012 44.2486 1.85486 47.5812 1.85486C50.9128 1.85486 54.9841 2.54999 56.0089 4.47595C56.16 4.67156 56.25 4.91701 56.25 5.18345ZM47.5811 44.2526H47.5807C46.934 44.2526 46.4078 44.7789 46.4078 45.4258V50.9041C46.4078 51.5508 46.934 52.0772 47.5807 52.0772C48.2279 52.0772 48.7542 51.5508 48.7542 50.9041V45.4258C48.7544 44.7789 48.2281 44.2526 47.5811 44.2526ZM53.932 5.52019C53.5752 5.09137 51.4046 4.17269 47.5812 4.17269C43.7588 4.17269 41.5883 5.09073 41.2303 5.51981V21.1831C41.5889 21.6125 43.7597 22.5301 47.5812 22.5301C51.4028 22.5301 53.5733 21.6125 53.932 21.1831V5.52019ZM45.2479 8.00504C44.6078 8.00504 44.089 8.52388 44.089 9.16402V17.5389C44.089 18.1791 44.6078 18.6979 45.2479 18.6979C45.8881 18.6979 46.4069 18.1791 46.4069 17.5389V9.16402C46.4069 8.52388 45.8881 8.00504 45.2479 8.00504Z" fill="white"/>
</g>
<path d="M7.89255 62.9706V64.9877H11.1843V66.25H6.37043V58.5156H11.1596L10.9739 59.7779H7.89255V61.795H10.7141V62.9706H7.89255ZM12.9369 66.25V58.5156H14.459V64.9877H17.1939V66.25H12.9369ZM21.6226 58.5156H24.7164C25.4836 58.5156 26.0446 58.6724 26.3994 58.9859C26.7541 59.2994 26.9315 59.7902 26.9315 60.4585C26.9315 60.8957 26.8655 61.2629 26.7335 61.5599C26.6097 61.8569 26.4159 62.092 26.1519 62.2652V62.3395C26.5149 62.455 26.7995 62.6695 27.0057 62.983C27.212 63.2882 27.3151 63.6512 27.3151 64.072C27.3151 64.7732 27.1254 65.3136 26.7459 65.6931C26.3746 66.0644 25.8342 66.25 25.1247 66.25H21.6226V58.5156ZM23.1447 65.8045L22.4889 65.1362H24.8525C25.1825 65.1362 25.4176 65.0455 25.5579 64.864C25.7064 64.6825 25.7806 64.3814 25.7806 63.9606C25.7806 63.5646 25.7105 63.2882 25.5702 63.1315C25.43 62.9665 25.1949 62.884 24.8649 62.884H22.9467V61.8074H24.5307C24.8607 61.8074 25.0876 61.729 25.2114 61.5722C25.3434 61.4155 25.4094 61.135 25.4094 60.7307C25.4094 60.31 25.3475 60.0212 25.2237 59.8645C25.1 59.7077 24.8731 59.6294 24.5431 59.6294H22.4889L23.1447 58.9611V65.8045ZM31.9679 66.4356C31.3492 66.4356 30.8418 66.3944 30.4458 66.3119C30.0498 66.2376 29.7404 66.1056 29.5177 65.9159C29.2949 65.7179 29.1382 65.4456 29.0474 65.0991C28.9567 64.7526 28.9113 64.3154 28.9113 63.7874V58.5156H30.4334V65.1362H32.0298C32.434 65.1362 32.7434 65.1197 32.9579 65.0867C33.1724 65.0455 33.3168 64.9795 33.391 64.8887C33.4735 64.7897 33.5148 64.6536 33.5148 64.4804V58.5156H35.0369V63.7874C35.0369 64.3154 34.9915 64.7526 34.9008 65.0991C34.81 65.4456 34.6533 65.7179 34.4305 65.9159C34.2078 66.1056 33.8943 66.2376 33.49 66.3119C33.094 66.3944 32.5867 66.4356 31.9679 66.4356ZM38.6222 62.9706V64.9877H41.9139V66.25H37.1001V58.5156H41.8892L41.7036 59.7779H38.6222V61.795H41.4437V62.9706H38.6222ZM43.7284 66.25V58.5156H45.2134L47.9112 62.8592C48.0267 63.0572 48.1051 63.2057 48.1463 63.3047C48.1958 63.4037 48.2206 63.5192 48.2206 63.6512H48.2948V58.5156H49.8169V66.25H48.3319L45.6466 61.9064C45.5228 61.7084 45.4403 61.5599 45.3991 61.4609C45.3578 61.3619 45.3331 61.2464 45.3248 61.1144H45.2506V66.25H43.7284ZM10.4169 76.8516C10.7716 76.9506 11.1635 77.029 11.5925 77.0867C12.0297 77.1362 12.4546 77.161 12.8671 77.161C13.0734 77.161 13.2714 77.1569 13.4611 77.1486C13.6509 77.1404 13.886 77.1197 14.1665 77.0867V75.1686L13.0156 75.0696C12.4794 75.0284 12.0339 74.9624 11.6791 74.8716C11.3326 74.7809 11.0562 74.653 10.85 74.488C10.6437 74.3147 10.4994 74.0961 10.4169 73.8321C10.3344 73.5599 10.2931 73.2257 10.2931 72.8297C10.2931 72.211 10.3756 71.7201 10.5406 71.3571C10.7056 70.9941 10.9737 70.7342 11.345 70.5775C11.7162 70.4125 12.2071 70.33 12.8176 70.33C13.2631 70.33 13.6962 70.3506 14.117 70.3919C14.546 70.4331 14.9791 70.5032 15.4164 70.6022L15.2184 71.8026C14.8389 71.7284 14.4759 71.6789 14.1294 71.6541C13.7911 71.6211 13.4199 71.6046 13.0156 71.6046C12.7764 71.6046 12.5825 71.6087 12.434 71.617C12.2855 71.6252 12.1246 71.6417 11.9514 71.6665V73.6094L13.2136 73.696C13.8654 73.7455 14.381 73.8527 14.7605 74.0177C15.14 74.1745 15.4122 74.4179 15.5772 74.7479C15.7422 75.0779 15.8247 75.5151 15.8247 76.0596C15.8247 76.6371 15.7257 77.1032 15.5277 77.458C15.338 77.8045 15.0245 78.0561 14.5872 78.2129C14.1582 78.3614 13.5849 78.4356 12.8671 78.4356C12.3969 78.4356 11.9431 78.4068 11.5059 78.349C11.0686 78.2995 10.6314 78.217 10.1941 78.1015L10.4169 76.8516ZM16.6195 78.25L18.8347 70.5156H21.1612L23.3763 78.25H21.8542L20.0474 71.9387H19.936L18.1417 78.25H16.6195ZM17.8199 76.6289V75.4656H22.1883V76.6289H17.8199ZM24.7284 70.5156H27.8222C28.5894 70.5156 29.1504 70.6724 29.5052 70.9859C29.8599 71.2994 30.0373 71.7902 30.0373 72.4585C30.0373 72.8957 29.9713 73.2629 29.8393 73.5599C29.7156 73.8569 29.5217 74.092 29.2577 74.2652V74.3395C29.6207 74.455 29.9053 74.6695 30.1116 74.983C30.3178 75.2882 30.4209 75.6512 30.4209 76.072C30.4209 76.7732 30.2312 77.3136 29.8517 77.6931C29.4804 78.0644 28.9401 78.25 28.2306 78.25H24.7284V70.5156ZM26.2506 77.8045L25.5947 77.1362H27.9583C28.2883 77.1362 28.5234 77.0455 28.6637 76.864C28.8122 76.6825 28.8864 76.3814 28.8864 75.9606C28.8864 75.5646 28.8163 75.2882 28.6761 75.1315C28.5358 74.9665 28.3007 74.884 27.9707 74.884H26.0526V73.8074H27.6366C27.9666 73.8074 28.1934 73.729 28.3172 73.5722C28.4492 73.4155 28.5152 73.135 28.5152 72.7307C28.5152 72.31 28.4533 72.0212 28.3296 71.8645C28.2058 71.7077 27.9789 71.6294 27.6489 71.6294H25.5947L26.2506 70.9611V77.8045ZM31.8439 74.389C31.8439 73.564 31.8893 72.8875 31.98 72.3595C32.079 71.8315 32.244 71.419 32.475 71.122C32.7143 70.825 33.0443 70.6187 33.465 70.5032C33.894 70.3877 34.4426 70.33 35.1109 70.33C35.7626 70.33 36.303 70.3877 36.732 70.5032C37.161 70.6187 37.491 70.8291 37.722 71.1344C37.9613 71.4314 38.1304 71.8439 38.2294 72.3719C38.3284 72.8916 38.3779 73.564 38.3779 74.389C38.3779 75.214 38.3284 75.8905 38.2294 76.4185C38.1304 76.9382 37.9613 77.3466 37.722 77.6436C37.491 77.9406 37.161 78.1469 36.732 78.2624C36.303 78.3779 35.7626 78.4356 35.1109 78.4356C34.4426 78.4356 33.894 78.3779 33.465 78.2624C33.0443 78.1469 32.7143 77.9406 32.475 77.6436C32.244 77.3466 32.079 76.9382 31.98 76.4185C31.8893 75.8905 31.8439 75.214 31.8439 74.389ZM33.4774 77.1362H35.6925C36.0885 77.1362 36.3608 77.0744 36.5093 76.9506C36.666 76.8269 36.7444 76.6082 36.7444 76.2947V71.6294H34.5045C34.1168 71.6294 33.8486 71.6912 33.7001 71.815C33.5516 71.9387 33.4774 72.1574 33.4774 72.4709V77.1362ZM41.7885 75.6265V78.25H40.2663V70.5156H43.4715C44.049 70.5156 44.5068 70.6022 44.8451 70.7755C45.1916 70.9487 45.4391 71.2292 45.5876 71.617C45.7443 72.0047 45.8227 72.5286 45.8227 73.1886C45.8227 74.0466 45.6536 74.6695 45.3153 75.0572C44.9771 75.4367 44.4243 75.6265 43.6571 75.6265H41.7885ZM41.7885 74.4632H43.4591C43.7478 74.4632 43.9458 74.4261 44.0531 74.3519C44.1686 74.2776 44.2263 74.1415 44.2263 73.9435V72.2976C44.2263 72.0996 44.1686 71.9635 44.0531 71.8893C43.9458 71.815 43.7478 71.7779 43.4591 71.7779H41.7885V74.4632ZM44.511 74.785L46.1816 78.25H44.5233L43.1002 75.2429L44.511 74.785Z" fill="white"/>
<defs>
<clipPath id="clip0_660_1340">
<rect width="56.25" height="56.25" fill="white"/>
</clipPath>
</defs>
</svg>
