<svg width="49" height="49" viewBox="0 0 49 49" fill="none" xmlns="http://www.w3.org/2000/svg">
<rect x="0.7875" y="0.729395" width="46.5656" height="46.5656" rx="23.2828" fill="white"/>
<path d="M11.4486 14.8931C11.0327 14.9596 10.6602 15.1887 10.4132 15.5298C10.1661 15.871 10.0647 16.2963 10.1313 16.7122C10.1978 17.1282 10.4269 17.5006 10.768 17.7477C11.1092 17.9947 11.5345 18.0961 11.9504 18.0296H16.6552L16.9374 18.8137L18.2234 22.7343L19.5094 26.6549C19.6348 27.0626 20.168 27.439 20.5758 27.439H31.5535C31.9926 27.439 32.4944 27.0626 32.6199 26.6549L35.1604 18.8137C35.2859 18.4059 35.0977 18.0296 34.6586 18.0296H20.7326L19.5407 15.7713C19.4138 15.5121 19.2178 15.293 18.9743 15.138C18.7308 14.9831 18.4492 14.8983 18.1607 14.8931L11.8877 14.8931C11.7938 14.8846 11.6993 14.8846 11.6054 14.8931C11.5428 14.8893 11.4799 14.8893 11.4172 14.8931L11.4486 14.8931ZM21.3599 30.5754C20.4817 30.5754 19.7916 31.2655 19.7916 32.1437C19.7916 33.0219 20.4817 33.7119 21.3599 33.7119C22.2381 33.7119 22.9281 33.0219 22.9281 32.1437C22.9281 31.2655 22.2381 30.5754 21.3599 30.5754ZM30.7693 30.5754C29.8911 30.5754 29.2011 31.2655 29.2011 32.1437C29.2011 33.0219 29.8911 33.7119 30.7693 33.7119C31.6475 33.7119 32.3376 33.0219 32.3376 32.1437C32.3376 31.2655 31.6475 30.5754 30.7693 30.5754Z" fill="#CA5310"/>
<rect x="0.7875" y="0.729395" width="46.5656" height="46.5656" rx="23.2828" stroke="#CA5310" stroke-width="1.43438"/>
</svg>
