<svg width="36" height="36" viewBox="0 0 36 36" fill="none" xmlns="http://www.w3.org/2000/svg">
<path d="M0.5 10.3333C0.5 5.34507 4.74187 1.25 10 1.25H26C31.2581 1.25 35.5 5.34507 35.5 10.3333V25.6667C35.5 30.6549 31.2581 34.75 26 34.75H10C4.74187 34.75 0.5 30.6549 0.5 25.6667V10.3333ZM26 4.08333H10C6.43613 4.08333 3.5 6.86718 3.5 10.3333V25.6667C3.5 29.1328 6.43613 31.9167 10 31.9167H26C29.5639 31.9167 32.5 29.1328 32.5 25.6667V10.3333C32.5 6.86718 29.5639 4.08333 26 4.08333ZM26.9317 7.42237C27.2116 7.1542 27.5955 7 28 7C28.4045 7 28.7884 7.1542 29.0683 7.42237C29.3474 7.68985 29.5 8.04797 29.5 8.41667C29.5 8.78536 29.3474 9.14348 29.0683 9.41096C28.7884 9.67913 28.4045 9.83333 28 9.83333C27.5955 9.83333 27.2116 9.67913 26.9317 9.41096C26.6526 9.14348 26.5 8.78536 26.5 8.41667C26.5 8.04797 26.6526 7.68985 26.9317 7.42237ZM8.5 18C8.5 13.0117 12.7419 8.91667 18 8.91667C23.2581 8.91667 27.5 13.0117 27.5 18C27.5 22.9883 23.2581 27.0833 18 27.0833C12.7419 27.0833 8.5 22.9883 8.5 18ZM24.5 18C24.5 14.5338 21.5639 11.75 18 11.75C14.4361 11.75 11.5 14.5338 11.5 18C11.5 21.4662 14.4361 24.25 18 24.25C21.5639 24.25 24.5 21.4662 24.5 18Z" fill="white" stroke="#CA5310"/>
</svg>
