<svg width="96" height="96" viewBox="0 0 96 96" fill="none" xmlns="http://www.w3.org/2000/svg">
<circle cx="48" cy="48" r="40.5" fill="#E4A987"/>
<path d="M48.0004 18.6123C40.3228 18.6123 34.0412 26.4294 34.0412 36.0613C34.0412 45.6931 40.3228 53.5103 48.0004 53.5103C55.6779 53.5103 61.9596 45.6931 61.9596 36.0613C61.9596 26.4294 55.6779 18.6123 48.0004 18.6123ZM33.4131 53.5103C26.0147 53.8592 20.082 59.9315 20.082 67.4694V74.449H75.9188V67.4694C75.9188 59.9315 70.0559 53.8592 62.5877 53.5103C58.8188 57.7678 53.6539 60.4899 48.0004 60.4899C42.3469 60.4899 37.182 57.7678 33.4131 53.5103Z" fill="white"/>
</svg>
