<svg width="25" height="28" viewBox="0 0 25 28" fill="none" xmlns="http://www.w3.org/2000/svg">
<path d="M17.8447 17.4567H16.7169L16.3172 17.043C17.7162 15.296 18.5585 13.0279 18.5585 10.5606C18.5585 5.05909 14.4043 0.599609 9.27925 0.599609C4.15425 0.599609 0 5.05909 0 10.5606C0 16.0622 4.15425 20.5217 9.27925 20.5217C11.5777 20.5217 13.6905 19.6175 15.3179 18.1157L15.7033 18.5448V19.7554L22.8412 27.4024L24.9683 25.1191L17.8447 17.4567ZM9.27925 17.4567C5.72459 17.4567 2.85515 14.3765 2.85515 10.5606C2.85515 6.7448 5.72459 3.66454 9.27925 3.66454C12.8339 3.66454 15.7033 6.7448 15.7033 10.5606C15.7033 14.3765 12.8339 17.4567 9.27925 17.4567Z" fill="#CA5310"/>
</svg>
