<svg width="58" height="43" viewBox="0 0 58 43" fill="none" xmlns="http://www.w3.org/2000/svg">
<path d="M3.60067 0.481849C2.66484 0.631581 1.82682 1.14693 1.27097 1.91454C0.715116 2.68214 0.48696 3.63912 0.636692 4.57494C0.786424 5.51077 1.30178 6.34878 2.06939 6.90464C2.83699 7.46049 3.79397 7.68864 4.7298 7.53891H15.3154L15.9506 9.30318L18.844 18.1245L21.7374 26.9458C22.0197 27.8632 23.2194 28.7101 24.1368 28.7101H48.8366C49.8246 28.7101 50.9537 27.8632 51.236 26.9458L56.9522 9.30318C57.2345 8.38576 56.8111 7.53891 55.8231 7.53891H24.4896L21.8079 2.45783C21.5223 1.87463 21.0813 1.38156 20.5334 1.03292C19.9856 0.684277 19.3521 0.493588 18.7028 0.481849L4.58866 0.481849C4.37738 0.462756 4.1648 0.462756 3.95352 0.481849C3.81251 0.473373 3.67111 0.473373 3.5301 0.481849L3.60067 0.481849ZM25.901 35.7672C23.9251 35.7672 22.3725 37.3197 22.3725 39.2957C22.3725 41.2717 23.9251 42.8242 25.901 42.8242C27.877 42.8242 29.4296 41.2717 29.4296 39.2957C29.4296 37.3197 27.877 35.7672 25.901 35.7672ZM47.0723 35.7672C45.0963 35.7672 43.5438 37.3197 43.5438 39.2957C43.5438 41.2717 45.0963 42.8242 47.0723 42.8242C49.0483 42.8242 50.6008 41.2717 50.6008 39.2957C50.6008 37.3197 49.0483 35.7672 47.0723 35.7672Z" fill="#691E06"/>
</svg>
