<svg width="49" height="45" viewBox="0 0 49 45" fill="none" xmlns="http://www.w3.org/2000/svg">
<g clip-path="url(#clip0_667_2716)">
<path d="M1.01309 29.1391C0.937483 24.704 2.15204 21.5739 4.64899 18.9495C7.02679 16.4506 9.86891 14.6172 12.8729 13.0721C14.1247 12.4357 15.1467 11.4081 15.7912 10.1379C16.139 9.48676 16.3465 8.75581 16.6041 8.05592C16.7446 7.67402 16.86 7.28218 16.9821 6.89331C18.1852 3.05736 20.8622 0.97201 24.6221 0.269333C29.1724 -0.581087 33.3951 1.75299 35.5645 6.22811C35.6448 6.3774 35.715 6.53216 35.7743 6.69137C36.6555 9.41028 38.6529 10.8416 41.1994 11.6418C41.6756 11.7916 42.1489 11.9521 42.6284 12.0893C45.8382 13.008 47.6384 15.2366 48.3694 18.499C48.9495 21.0875 48.5692 23.4171 46.8349 25.4785C46.0769 26.3791 45.4339 27.3809 44.7471 28.343C43.7409 29.7526 43.4015 31.3449 43.4837 33.0694C43.5323 34.0883 43.6112 35.1253 43.488 36.1296C43.0659 39.5691 40.2854 43.8764 35.2439 44.6798C31.7524 45.2373 28.3703 44.9984 25.038 43.7549C23.7232 43.287 22.3802 42.9063 21.0175 42.6154C18.956 42.1431 16.9226 42.5955 14.8797 42.9019C13.6719 43.0829 12.4057 43.2701 11.2168 43.0935C6.97625 42.4631 4.10439 39.9118 2.45854 35.9333C1.46498 33.5328 1.00162 30.9855 1.01309 29.1391ZM32.5355 41.9621C33.0499 41.9223 33.6791 41.8556 34.3098 41.8249C38.8144 41.6059 41.6723 37.3311 40.878 33.3872C40.3781 30.9052 40.9955 28.5849 42.5494 26.5715C43.4363 25.4232 44.3234 24.2747 45.2316 23.1439C45.6345 22.6639 45.92 22.0926 46.0648 21.4771C46.2096 20.8617 46.2094 20.2199 46.0643 19.6046C45.9327 18.9746 45.7587 18.352 45.571 17.7365C45.0884 16.1549 44.0281 15.1444 42.523 14.6134C41.6762 14.3147 40.8041 14.0895 39.96 13.7833C37.0048 12.7115 34.6734 10.9467 33.6728 7.73382C33.6103 7.53982 33.5321 7.35136 33.4396 7.1703C31.3044 2.88714 27.1424 0.624338 22.1862 3.3771C21.4237 3.79016 20.7676 4.38249 20.2714 5.10546C19.5953 6.15238 19.0622 7.28923 18.687 8.48428C17.9801 10.8126 16.5349 12.8325 14.5806 14.2241C12.7172 15.593 10.8232 16.9202 8.99546 18.3375C6.71017 20.1096 4.71039 22.1418 4.03304 25.1472C3.14851 28.8683 3.72424 32.7966 5.63651 36.0876C7.2497 38.9073 9.80766 40.4343 13.1868 39.9431C13.8447 39.8475 14.5048 39.7605 15.1582 39.6382C17.166 39.2627 19.1941 39.004 21.1998 39.4823C23.0357 39.9204 24.839 40.5131 26.6386 41.0951C28.5256 41.7082 30.4338 42.0889 32.5355 41.9631V41.9621Z" fill="black"/>
<path d="M26.072 29.2123C23.8913 29.1804 21.7927 28.3533 20.1537 26.8793C17.4177 24.4777 17.0537 20.3535 19.2857 17.2932C20.2038 16.0328 21.4215 15.0341 22.8231 14.3922C23.8143 13.9276 24.74 13.3567 25.8599 13.2038C28.8531 12.7968 32.4219 14.6538 33.9857 17.49C35.4417 20.1307 35.0759 23.8653 33.0302 26.2851C31.2913 28.3422 28.9839 29.1639 26.072 29.2123ZM32.2147 21.0229C32.225 17.6777 29.2187 15.6601 26.4766 15.5135C23.7591 15.368 21.7496 16.9125 20.634 19.4919C19.6816 21.6945 20.4126 24.0797 22.3892 25.3903C24.3253 26.674 26.4245 26.8942 28.5911 26.1959C30.8383 25.4717 32.2273 23.4222 32.2155 21.0229H32.2147Z" fill="black"/>
</g>
<defs>
<clipPath id="clip0_667_2716">
<rect width="47.8125" height="45" fill="white" transform="translate(0.996094)"/>
</clipPath>
</defs>
</svg>
