<svg width="29" height="45" viewBox="0 0 29 45" fill="none" xmlns="http://www.w3.org/2000/svg">
<path d="M10.1544 4.96565C10.2604 4.27846 10.2904 3.62317 10.4709 3.00512C10.8754 1.6205 11.8216 0.681661 13.3511 0.284507C14.3299 0.00734101 15.3628 -0.0685444 16.3768 0.0622521C18.1881 0.324551 19.423 1.51414 19.5856 3.19524C19.6165 3.51566 19.5901 3.84104 19.5901 4.13829C19.683 4.2169 19.7868 4.28365 19.8989 4.33675C23.3196 5.27161 25.5615 7.43972 26.9807 10.336C27.7291 11.8635 28.1193 13.5372 28.7712 15.1095C29.1017 15.9072 29.0211 16.5562 28.6425 17.3154C27.3197 19.9682 26.1129 22.67 24.7909 25.3232C22.498 29.924 20.1729 34.5109 17.8155 39.0842C16.9376 40.7812 15.9273 42.4219 14.9315 44.0646C14.2284 45.2242 13.6838 45.1708 12.3757 44.6314C11.1311 44.1186 10.718 43.217 10.3271 42.2113C7.60853 35.2177 4.89741 28.2218 2.1938 21.2235C1.69981 19.9406 1.30714 18.624 0.897127 17.315C0.834126 17.0661 0.839438 16.8065 0.912705 16.56C1.69332 13.5805 3.19672 10.8033 5.30946 8.43784C6.34127 7.28108 7.59363 6.30818 9.0047 5.56717C9.39947 5.35615 9.79814 5.15159 10.1544 4.96565ZM13.1022 42.0625H13.343C14.5278 39.8196 15.6864 37.5643 16.9026 35.336C19.9555 29.7428 23.022 24.156 26.1022 18.5756C26.3046 18.2069 26.4945 17.8326 26.6837 17.474C26.5771 17.4058 26.5478 17.3708 26.519 17.3712C22.472 17.4261 18.425 17.4662 14.3788 17.5464C10.9648 17.6144 7.55174 17.7277 4.1385 17.8286C3.84724 17.8556 3.55801 17.8988 3.27238 17.9579C6.57241 26.0499 9.83741 34.0562 13.1022 42.0625ZM26.4696 15.1609C25.9793 12.9267 25.2637 10.9922 23.938 9.25395C22.499 7.3679 20.5505 6.28379 18.1337 5.83403C16.9051 5.60611 15.6821 5.68907 14.4558 5.82525C11.8366 6.08634 9.40841 7.21377 7.62028 8.99906C5.80941 10.7822 4.41125 12.8871 3.51129 15.1854C3.4427 15.4055 3.38913 15.6293 3.35078 15.8555C3.65438 15.8555 3.86183 15.8648 4.06786 15.8542C5.92978 15.7566 7.79009 15.6073 9.65344 15.5647C14.5097 15.4534 19.3675 15.3919 24.2243 15.3C24.9179 15.2865 25.6101 15.2156 26.4696 15.1609ZM17.6275 3.758C17.6747 2.26777 17.0129 1.61176 15.4277 1.66779C14.9374 1.68901 14.4519 1.76614 13.9821 1.89742C12.8369 2.21043 12.23 3.03591 12.2226 4.20173L17.6275 3.758Z" fill="black"/>
</svg>
