<svg width="45" height="45" viewBox="0 0 45 45" fill="none" xmlns="http://www.w3.org/2000/svg">
<path d="M24.0885 5.01213C24.2088 5.13367 24.336 5.24786 24.4699 5.35417C28.2044 7.63076 31.9308 9.92056 35.6796 12.173C37.7485 13.4162 39.8623 14.5832 41.9392 15.813C42.4293 16.1326 42.8948 16.489 43.3314 16.8792C43.4788 17.0004 43.6674 17.1741 43.6825 17.338C43.7695 18.2824 44.4881 19.1105 44.1318 20.1491C44.0017 20.5287 44.0921 20.9914 44.1103 21.4145C44.3683 27.5069 44.6389 33.5987 44.884 39.6917C44.9155 40.4747 44.8104 41.2623 44.7907 42.0484C44.7829 42.2996 44.8172 42.5501 44.8922 42.7898C45.1739 43.6543 44.8821 44.3737 44.0265 44.6653C43.5923 44.8024 43.1392 44.8697 42.6841 44.8651C36.9417 44.9065 31.1992 44.9381 25.4566 44.9596C21.117 44.9788 16.7767 45.0219 12.4374 44.9864C9.40509 44.9615 6.3744 44.8162 3.34263 44.7372C2.5897 44.718 2.13473 44.4559 1.78191 43.6961C1.3769 42.8408 1.15404 41.91 1.12745 40.963C0.946273 35.2598 0.747529 29.5572 0.572074 23.8539C0.537746 22.7405 0.578524 21.6248 0.589394 20.5103C0.579864 20.3473 0.596872 20.1836 0.639494 20.026C1.32911 18.0896 1.93409 16.1173 2.74366 14.2331C4.71661 9.56748 7.71045 5.40889 11.5023 2.0666C12.2211 1.44952 12.9881 0.891703 13.7961 0.398563C14.764 -0.207108 15.143 -0.115288 16.0243 0.624978C16.3821 0.910245 16.7665 1.1601 17.1721 1.37102C18.5725 2.14254 19.9929 2.87799 21.3836 3.66657C21.8756 3.94554 22.2036 3.90123 22.6947 3.58526C23.7969 2.89469 24.9366 2.26686 26.1087 1.70462C26.5225 1.51345 26.9776 1.43059 27.4318 1.46379C27.737 1.48469 28.1808 1.719 28.2725 1.96651C28.3625 2.20905 28.1699 2.67838 27.9502 2.88814C27.6069 3.21618 27.1444 3.4273 26.7159 3.65603C25.8897 4.09854 25.0504 4.51881 24.0885 5.01213ZM40.7709 18.2286C34.5979 14.4408 28.7073 10.3034 22.4167 6.79442C22.2309 7.01223 22.1186 7.12841 22.0246 7.25802C21.9128 7.41141 21.8167 7.57823 21.6721 7.80428C21.9304 8.01683 22.1768 8.24355 22.41 8.48338C24.0202 10.3251 23.9372 13.4191 22.1266 14.868C20.5437 16.1343 18.6791 16.7212 16.6313 16.4118C15.006 16.1662 13.9742 14.9778 13.8514 13.3282C13.6321 10.3836 15.8822 7.46432 18.7807 7.1125C19.6984 7.00111 20.2 6.62957 20.5128 5.81281L14.2101 2.00064C9.04998 6.61077 5.40399 12.3034 3.52776 19.1795C5.93417 19.4652 37.5513 18.8089 40.7709 18.2286ZM2.8772 21.5679C2.7437 22.0856 3.04421 26.382 3.32474 27.3119C5.06309 27.3119 6.82065 27.3777 8.57196 27.2987C12.8739 27.1046 17.173 26.8598 21.4728 26.6061C27.5629 26.247 33.6514 25.8613 39.7407 25.4878C40.3496 25.4494 40.9587 25.4186 41.5936 25.3827V21.0891C35.1138 21.2617 28.6965 21.5029 22.2771 21.5819C15.8203 21.6615 9.36144 21.5792 2.8772 21.5679ZM41.7607 36.8441L3.84697 37.7613C3.90037 38.5731 3.96335 39.3826 4.00435 40.1932C4.04497 40.9971 4.06349 41.8022 4.09114 42.5898C6.7739 42.9158 40.5456 42.2185 41.9403 41.8062C41.8812 40.1595 41.8209 38.5006 41.7607 36.8443V36.8441ZM31.5371 34.4047C32.8721 34.4047 34.1634 34.4003 35.4534 34.4066C36.0761 34.4095 36.5823 34.2928 36.8033 33.5822C36.8943 33.29 37.1788 33.055 37.3876 32.8042C38.5384 31.4237 39.6953 30.0465 40.8439 28.6638C40.9921 28.4853 41.1082 28.2803 41.3018 27.9927C39.1113 28.1634 37.0678 28.3321 35.0211 28.4742C34.5824 28.5046 34.3156 28.6373 34.143 29.0791C33.8808 29.7471 33.5352 30.3828 33.2167 31.0274C32.6578 32.1611 32.0915 33.2914 31.5371 34.4047ZM20.6036 34.8812C21.8743 32.8623 23.0228 31.0376 24.2422 29.1005C22.1693 29.1999 20.2525 29.2996 18.3346 29.3782C17.9124 29.3954 17.7139 29.6082 17.5383 29.967C16.7775 31.5228 15.9871 33.0642 15.2115 34.6128C15.1478 34.7725 15.0933 34.9354 15.048 35.1013L20.6036 34.8812ZM28.9694 34.6221C29.6163 32.4295 31.1778 30.7743 32.2227 28.6594L26.583 28.9587L23.3355 34.7912L28.9694 34.6221ZM12.1795 35.246C13.3428 33.3163 14.446 31.4881 15.6505 29.4903C13.9486 29.567 12.4575 29.6088 10.9723 29.7254C10.7259 29.7446 10.4298 30.0454 10.2845 30.2921C9.62212 31.4153 9.00683 32.5666 8.37175 33.7049C8.07348 34.2395 7.7657 34.7688 7.36082 35.4771L12.1795 35.246ZM15.7002 12.4303C15.6794 13.8953 16.3007 14.565 17.5148 14.4887C18.4934 14.4276 19.4401 14.1155 20.2647 13.5822C21.0632 13.0718 21.2089 12.2785 21.0992 11.4318C21.0659 11.0354 20.9133 10.6585 20.6617 10.3514C20.4102 10.0442 20.0719 9.82129 19.6912 9.71217C18.6028 9.3893 17.4921 9.69432 16.594 10.2256C15.8224 10.6815 15.8 11.7336 15.6999 12.4303H15.7002ZM8.67159 29.72H3.41581C3.52909 31.6327 3.64228 33.5381 3.75404 35.4213C4.91529 35.6212 4.88623 35.6046 5.37025 34.76C5.87317 33.8825 6.4278 33.0344 6.98201 32.1878C7.48015 31.4266 8.00831 30.6852 8.67123 29.72H8.67159ZM41.5963 33.8351V31.0865L41.4151 31.0439L39.3947 34.0707L41.5963 33.8351Z" fill="black"/>
</svg>
