<svg width="46" height="45" viewBox="0 0 46 45" fill="none" xmlns="http://www.w3.org/2000/svg">
<path d="M41.7681 2.33982C41.1374 3.85747 40.3307 5.28782 39.3635 6.60696C35.126 2.37642 29.3834 0 23.3931 0C11.0013 0 0.808594 10.1927 0.808594 22.5845C0.808594 28.7663 3.34551 34.6834 7.82524 38.9435L8.65445 39.684C12.7315 43.1163 17.8786 44.993 23.2016 45C34.9852 45 44.8837 35.7759 45.7269 24.0289C46.3436 18.2723 44.6485 10.9994 41.7667 2.34686L41.7681 2.33982ZM11.0295 39.0758C10.6705 39.5306 10.113 39.7868 9.53294 39.7868C8.46299 39.7868 7.60421 38.921 7.59717 37.8581C7.59717 36.7951 8.47707 35.9223 9.53294 35.9223C11.1534 35.9293 12.0558 37.8144 11.0295 39.0758ZM41.6794 32.3154C36.1072 39.7361 24.1983 37.2358 16.5735 37.5948C16.5735 37.5948 15.2164 37.675 13.8536 37.8961C13.8536 37.8961 14.3674 37.6835 15.0263 37.4273C20.3859 35.5647 22.9158 35.2057 26.1721 33.5332C32.3018 30.4163 38.3654 23.5981 39.6268 16.5069C37.2884 23.3334 30.2112 29.1914 23.7661 31.5749C19.3526 33.2024 11.3744 34.7862 11.3744 34.7862L11.052 34.6172C5.61916 31.9775 5.45726 20.2165 15.3262 16.4182C19.6454 14.7611 23.7873 15.6706 28.4514 14.5626C33.438 13.3744 39.2087 9.63521 41.5541 4.75848C44.1797 12.5607 47.3389 24.7708 41.6794 32.3154Z" fill="black"/>
</svg>
