<svg width="36" height="36" viewBox="0 0 36 36" fill="none" xmlns="http://www.w3.org/2000/svg">
<path d="M0.225 18C0.225 8.20446 8.20446 0.225 18 0.225C27.7955 0.225 35.775 8.20446 35.775 18C35.775 27.7955 27.7955 35.775 18 35.775C8.20446 35.775 0.225 27.7955 0.225 18ZM32.625 18C32.625 9.90152 26.0985 3.375 18 3.375C9.90152 3.375 3.375 9.90152 3.375 18C3.375 26.0985 9.90152 32.625 18 32.625C26.0985 32.625 32.625 26.0985 32.625 18ZM10.8 16.425H16.2H19.8H25.2C26.0698 16.425 26.775 17.1302 26.775 18C26.775 18.8698 26.0698 19.575 25.2 19.575H19.8H19.125H16.425H16.2H10.8C9.93015 19.575 9.225 18.8698 9.225 18C9.225 17.1302 9.93015 16.425 10.8 16.425Z" fill="#CA5310" stroke="#CA5310" stroke-width="0.45"/>
</svg>
