<svg width="50" height="49" viewBox="0 0 50 49" fill="none" xmlns="http://www.w3.org/2000/svg">
<rect x="1.56289" y="0.729394" width="46.7911" height="46.7912" rx="23.3956" fill="white"/>
<path d="M30.2499 27.2654H29.1168L28.7152 26.8781C30.1209 25.243 30.9671 23.1201 30.9671 20.8107C30.9671 15.6613 26.7931 11.4873 21.6437 11.4873C16.4943 11.4873 12.3203 15.6613 12.3203 20.8107C12.3203 25.9601 16.4943 30.1342 21.6437 30.1342C23.9531 30.1342 26.0759 29.2879 27.7111 27.8822L28.0984 28.2838V29.417L35.2702 36.5745L37.4075 34.4373L30.2499 27.2654ZM21.6437 27.2654C18.0721 27.2654 15.1891 24.3823 15.1891 20.8107C15.1891 17.2391 18.0721 14.3561 21.6437 14.3561C25.2153 14.3561 28.0984 17.2391 28.0984 20.8107C28.0984 24.3823 25.2153 27.2654 21.6437 27.2654Z" fill="#CA5310"/>
<rect x="1.56289" y="0.729394" width="46.7911" height="46.7912" rx="23.3956" stroke="#CA5310" stroke-width="1.43437"/>
</svg>
