<svg width="1434" height="105" viewBox="0 0 1434 105" fill="none" xmlns="http://www.w3.org/2000/svg">
<rect width="1440" height="112.25" transform="translate(-6)" fill="#CA5310"/>
<g clip-path="url(#clip0_258_2836)">
<path d="M104.068 42.6627C104.708 42.6627 105.227 43.1815 105.227 43.8216C105.227 44.4618 104.708 44.9806 104.068 44.9806C100.359 44.9806 96.9138 42.9765 95.0761 39.7507C94.7593 39.1945 94.9533 38.4869 95.5094 38.1699C96.0657 37.853 96.7732 38.0471 97.0901 38.6033C98.5167 41.1072 101.19 42.6627 104.068 42.6627ZM104.004 53.7895V62.1644C104.004 62.8046 104.523 63.3234 105.163 63.3234C105.803 63.3234 106.322 62.8046 106.322 62.1644V53.7895C106.322 53.1494 105.803 52.6305 105.163 52.6305C104.523 52.6305 104.004 53.1494 104.004 53.7895ZM121.207 43.8216C121.207 44.4618 121.725 44.9806 122.366 44.9806C124.482 44.9806 126.518 44.3451 128.252 43.1429C128.778 42.7782 128.909 42.0561 128.544 41.5301C128.18 41.0039 127.457 40.8731 126.931 41.2379C125.587 42.17 124.008 42.6625 122.366 42.6625C121.725 42.6627 121.207 43.1815 121.207 43.8216ZM127.228 52.5211C126.588 52.5211 126.069 53.0399 126.069 53.68V64.8308C125.842 65.0724 124.858 65.6653 122.309 66.1737C119.896 66.6551 116.789 66.9202 113.562 66.9202C110.334 66.9202 107.228 66.6551 104.815 66.1737C102.266 65.6654 101.281 65.0724 101.055 64.8308V49.9805C101.491 50.0272 101.933 50.0512 102.382 50.0512C105.203 50.0512 107.963 49.0768 110.154 47.3075C110.652 46.9054 110.73 46.1758 110.328 45.6777C109.926 45.1798 109.196 45.1015 108.698 45.5041C106.892 46.9623 104.708 47.7332 102.382 47.7332C96.8327 47.7332 92.318 43.2185 92.318 37.6693C92.318 32.1201 96.8327 27.6056 102.382 27.6056C102.699 27.6056 103.025 27.6213 103.351 27.6522C103.833 27.6978 104.292 27.4401 104.503 27.0049C106.203 23.5044 109.674 21.33 113.562 21.33C117.45 21.33 120.921 23.5045 122.621 27.0046C122.832 27.4399 123.291 27.6982 123.773 27.6521C124.098 27.6213 124.423 27.6056 124.742 27.6056C125.382 27.6056 125.901 27.0868 125.901 26.4466C125.901 25.8065 125.382 25.2876 124.742 25.2876C124.608 25.2876 124.474 25.29 124.339 25.2943C123.343 23.5376 121.932 22.0473 120.221 20.9536C118.233 19.6835 115.931 19.012 113.562 19.012C111.193 19.012 108.89 19.6835 106.903 20.9538C105.192 22.0474 103.78 23.5377 102.785 25.2943C102.65 25.29 102.515 25.2876 102.382 25.2876C95.5546 25.2875 90 30.842 90 37.6693C90 43.2286 93.6828 47.944 98.7369 49.5037V64.9511C98.7369 66.4445 100.341 67.5376 103.64 68.2927C106.303 68.9022 109.827 69.2381 113.562 69.2381C117.297 69.2381 120.82 68.9023 123.484 68.2927C126.783 67.5376 128.387 66.4444 128.387 64.9511V53.68C128.387 53.0399 127.868 52.5211 127.228 52.5211ZM139.914 24.0052C139.274 24.0052 138.755 24.524 138.755 25.1641V33.5391C138.755 34.1792 139.274 34.698 139.914 34.698C140.554 34.698 141.073 34.1792 141.073 33.5391V25.1641C141.073 24.524 140.554 24.0052 139.914 24.0052ZM131.13 45.4458C129.337 46.9208 127.068 47.7332 124.742 47.7332C122.416 47.7332 120.232 46.9625 118.425 45.504C117.928 45.1019 117.198 45.1798 116.796 45.6778C116.394 46.1758 116.471 46.9054 116.969 47.3076C119.161 49.0767 121.921 50.0512 124.742 50.0512C127.604 50.0512 130.396 49.0513 132.603 47.2359C133.097 46.8293 133.168 46.0989 132.762 45.6045C132.355 45.11 131.625 45.039 131.13 45.4458ZM146.25 21.1836V37.2809C146.25 39.5242 142.642 40.6393 138.74 40.8214V58.1325C140.097 58.6115 141.072 59.9069 141.072 61.4259V66.9043C141.072 68.8292 139.506 70.3952 137.581 70.3952C135.656 70.3952 134.09 68.8292 134.09 66.9043V61.4259C134.09 59.9067 135.065 58.6112 136.422 58.1325V40.8214C132.52 40.6393 128.912 39.5242 128.912 37.2809V21.1836C128.912 20.9179 129.002 20.6728 129.152 20.4775C130.176 18.5502 134.249 17.855 137.581 17.855C140.913 17.855 144.984 18.5501 146.009 20.4761C146.16 20.6717 146.25 20.9171 146.25 21.1836ZM137.581 60.2527H137.581C136.934 60.2527 136.408 60.7791 136.408 61.4259V66.9043C136.408 67.551 136.934 68.0773 137.581 68.0773C138.228 68.0773 138.754 67.551 138.754 66.9043V61.4259C138.754 60.7791 138.228 60.2527 137.581 60.2527ZM143.932 21.5203C143.575 21.0915 141.405 20.1728 137.581 20.1728C133.759 20.1728 131.588 21.0908 131.23 21.5199V37.1833C131.589 37.6126 133.76 38.5303 137.581 38.5303C141.403 38.5303 143.573 37.6126 143.932 37.1833V21.5203ZM135.248 24.0052C134.608 24.0052 134.089 24.524 134.089 25.1641V33.5391C134.089 34.1792 134.608 34.698 135.248 34.698C135.888 34.698 136.407 34.1792 136.407 33.5391V25.1641C136.407 24.524 135.888 24.0052 135.248 24.0052Z" fill="white"/>
</g>
<path d="M97.8926 78.9706V80.9877H101.184V82.25H96.3704V74.5156H101.16L100.974 75.7779H97.8926V77.795H100.714V78.9706H97.8926ZM102.937 82.25V74.5156H104.459V80.9877H107.194V82.25H102.937ZM111.623 74.5156H114.716C115.484 74.5156 116.045 74.6724 116.399 74.9859C116.754 75.2994 116.931 75.7902 116.931 76.4585C116.931 76.8957 116.865 77.2629 116.733 77.5599C116.61 77.8569 116.416 78.092 116.152 78.2652V78.3395C116.515 78.455 116.799 78.6695 117.006 78.983C117.212 79.2882 117.315 79.6512 117.315 80.072C117.315 80.7732 117.125 81.3136 116.746 81.6931C116.375 82.0644 115.834 82.25 115.125 82.25H111.623V74.5156ZM113.145 81.8045L112.489 81.1362H114.852C115.182 81.1362 115.418 81.0455 115.558 80.864C115.706 80.6825 115.781 80.3814 115.781 79.9606C115.781 79.5646 115.71 79.2882 115.57 79.1315C115.43 78.9665 115.195 78.884 114.865 78.884H112.947V77.8074H114.531C114.861 77.8074 115.088 77.729 115.211 77.5722C115.343 77.4155 115.409 77.135 115.409 76.7307C115.409 76.31 115.347 76.0212 115.224 75.8645C115.1 75.7077 114.873 75.6294 114.543 75.6294H112.489L113.145 74.9611V81.8045ZM121.968 82.4356C121.349 82.4356 120.842 82.3944 120.446 82.3119C120.05 82.2376 119.74 82.1056 119.518 81.9159C119.295 81.7179 119.138 81.4456 119.047 81.0991C118.957 80.7526 118.911 80.3154 118.911 79.7874V74.5156H120.433V81.1362H122.03C122.434 81.1362 122.743 81.1197 122.958 81.0867C123.172 81.0455 123.317 80.9795 123.391 80.8887C123.474 80.7897 123.515 80.6536 123.515 80.4804V74.5156H125.037V79.7874C125.037 80.3154 124.992 80.7526 124.901 81.0991C124.81 81.4456 124.653 81.7179 124.431 81.9159C124.208 82.1056 123.894 82.2376 123.49 82.3119C123.094 82.3944 122.587 82.4356 121.968 82.4356ZM128.622 78.9706V80.9877H131.914V82.25H127.1V74.5156H131.889L131.704 75.7779H128.622V77.795H131.444V78.9706H128.622ZM133.728 82.25V74.5156H135.213L137.911 78.8592C138.027 79.0572 138.105 79.2057 138.146 79.3047C138.196 79.4037 138.221 79.5192 138.221 79.6512H138.295V74.5156H139.817V82.25H138.332L135.647 77.9064C135.523 77.7084 135.44 77.5599 135.399 77.4609C135.358 77.3619 135.333 77.2464 135.325 77.1144H135.251V82.25H133.728ZM100.417 92.8516C100.772 92.9506 101.163 93.029 101.592 93.0867C102.03 93.1362 102.455 93.161 102.867 93.161C103.073 93.161 103.271 93.1569 103.461 93.1486C103.651 93.1404 103.886 93.1197 104.166 93.0867V91.1686L103.016 91.0696C102.479 91.0284 102.034 90.9624 101.679 90.8716C101.333 90.7809 101.056 90.653 100.85 90.488C100.644 90.3147 100.499 90.0961 100.417 89.8321C100.334 89.5599 100.293 89.2257 100.293 88.8297C100.293 88.211 100.376 87.7201 100.541 87.3571C100.706 86.9941 100.974 86.7342 101.345 86.5775C101.716 86.4125 102.207 86.33 102.818 86.33C103.263 86.33 103.696 86.3506 104.117 86.3919C104.546 86.4331 104.979 86.5032 105.416 86.6022L105.218 87.8026C104.839 87.7284 104.476 87.6789 104.129 87.6541C103.791 87.6211 103.42 87.6046 103.016 87.6046C102.776 87.6046 102.582 87.6087 102.434 87.617C102.285 87.6252 102.125 87.6417 101.951 87.6665V89.6094L103.214 89.696C103.865 89.7455 104.381 89.8527 104.76 90.0177C105.14 90.1745 105.412 90.4179 105.577 90.7479C105.742 91.0779 105.825 91.5151 105.825 92.0596C105.825 92.6371 105.726 93.1032 105.528 93.458C105.338 93.8045 105.024 94.0561 104.587 94.2129C104.158 94.3614 103.585 94.4356 102.867 94.4356C102.397 94.4356 101.943 94.4068 101.506 94.349C101.069 94.2995 100.631 94.217 100.194 94.1015L100.417 92.8516ZM106.62 94.25L108.835 86.5156H111.161L113.376 94.25H111.854L110.047 87.9387H109.936L108.142 94.25H106.62ZM107.82 92.6289V91.4656H112.188V92.6289H107.82ZM114.728 86.5156H117.822C118.589 86.5156 119.15 86.6724 119.505 86.9859C119.86 87.2994 120.037 87.7902 120.037 88.4585C120.037 88.8957 119.971 89.2629 119.839 89.5599C119.716 89.8569 119.522 90.092 119.258 90.2652V90.3395C119.621 90.455 119.905 90.6695 120.112 90.983C120.318 91.2882 120.421 91.6512 120.421 92.072C120.421 92.7732 120.231 93.3136 119.852 93.6931C119.48 94.0644 118.94 94.25 118.231 94.25H114.728V86.5156ZM116.251 93.8045L115.595 93.1362H117.958C118.288 93.1362 118.523 93.0455 118.664 92.864C118.812 92.6825 118.886 92.3814 118.886 91.9606C118.886 91.5646 118.816 91.2882 118.676 91.1315C118.536 90.9665 118.301 90.884 117.971 90.884H116.053V89.8074H117.637C117.967 89.8074 118.193 89.729 118.317 89.5722C118.449 89.4155 118.515 89.135 118.515 88.7307C118.515 88.31 118.453 88.0212 118.33 87.8645C118.206 87.7077 117.979 87.6294 117.649 87.6294H115.595L116.251 86.9611V93.8045ZM121.844 90.389C121.844 89.564 121.889 88.8875 121.98 88.3595C122.079 87.8315 122.244 87.419 122.475 87.122C122.714 86.825 123.044 86.6187 123.465 86.5032C123.894 86.3877 124.443 86.33 125.111 86.33C125.763 86.33 126.303 86.3877 126.732 86.5032C127.161 86.6187 127.491 86.8291 127.722 87.1344C127.961 87.4314 128.13 87.8439 128.229 88.3719C128.328 88.8916 128.378 89.564 128.378 90.389C128.378 91.214 128.328 91.8905 128.229 92.4185C128.13 92.9382 127.961 93.3466 127.722 93.6436C127.491 93.9406 127.161 94.1469 126.732 94.2624C126.303 94.3779 125.763 94.4356 125.111 94.4356C124.443 94.4356 123.894 94.3779 123.465 94.2624C123.044 94.1469 122.714 93.9406 122.475 93.6436C122.244 93.3466 122.079 92.9382 121.98 92.4185C121.889 91.8905 121.844 91.214 121.844 90.389ZM123.477 93.1362H125.693C126.089 93.1362 126.361 93.0744 126.509 92.9506C126.666 92.8269 126.744 92.6082 126.744 92.2947V87.6294H124.505C124.117 87.6294 123.849 87.6912 123.7 87.815C123.552 87.9387 123.477 88.1574 123.477 88.4709V93.1362ZM131.788 91.6265V94.25H130.266V86.5156H133.471C134.049 86.5156 134.507 86.6022 134.845 86.7755C135.192 86.9487 135.439 87.2292 135.588 87.617C135.744 88.0047 135.823 88.5286 135.823 89.1886C135.823 90.0466 135.654 90.6695 135.315 91.0572C134.977 91.4367 134.424 91.6265 133.657 91.6265H131.788ZM131.788 90.4632H133.459C133.748 90.4632 133.946 90.4261 134.053 90.3519C134.169 90.2776 134.226 90.1415 134.226 89.9435V88.2976C134.226 88.0996 134.169 87.9635 134.053 87.8893C133.946 87.815 133.748 87.7779 133.459 87.7779H131.788V90.4632ZM134.511 90.785L136.182 94.25H134.523L133.1 91.2429L134.511 90.785Z" fill="white"/>
<path d="M469.862 40.625H467.893V30.625H469.862V40.625ZM473.622 30.625H475.574V40.625H473.622V30.625ZM473.878 36.417H469.605V34.913H473.878V36.417ZM481.599 40.801C480.895 40.801 480.308 40.737 479.839 40.609C479.37 40.4703 478.996 40.2463 478.719 39.937C478.442 39.617 478.244 39.1903 478.127 38.657C478.01 38.113 477.951 37.4357 477.951 36.625C477.951 35.8143 478.01 35.1423 478.127 34.609C478.244 34.065 478.442 33.6383 478.719 33.329C478.996 33.009 479.37 32.785 479.839 32.657C480.308 32.5183 480.895 32.449 481.599 32.449C482.314 32.449 482.906 32.5183 483.375 32.657C483.844 32.785 484.212 33.009 484.479 33.329C484.756 33.6383 484.954 34.0597 485.071 34.593C485.188 35.1263 485.247 35.8037 485.247 36.625C485.247 37.4357 485.188 38.113 485.071 38.657C484.954 39.1903 484.756 39.617 484.479 39.937C484.212 40.2463 483.839 40.4703 483.359 40.609C482.89 40.737 482.303 40.801 481.599 40.801ZM480.031 39.249H482.447C482.735 39.249 482.927 39.2223 483.023 39.169C483.13 39.105 483.183 38.993 483.183 38.833V34.001H480.767C480.479 34.001 480.282 34.033 480.175 34.097C480.079 34.1503 480.031 34.257 480.031 34.417V39.249ZM488.567 32.625L489.207 33.841C489.645 33.425 490.039 33.105 490.391 32.881C490.743 32.657 491.09 32.4917 491.431 32.385L491.607 34.305C491.394 34.3583 491.159 34.4383 490.903 34.545C490.647 34.641 490.402 34.753 490.167 34.881C489.943 34.9983 489.751 35.121 489.591 35.249V40.625H487.623V32.625H488.567ZM495.332 40.801C494.436 40.801 493.791 40.609 493.396 40.225C493.002 39.841 492.804 39.2117 492.804 38.337C492.804 37.793 492.863 37.3557 492.98 37.025C493.098 36.6837 493.316 36.4223 493.636 36.241C493.956 36.0597 494.415 35.937 495.012 35.873C495.61 35.7983 496.388 35.761 497.348 35.761H498.132V36.929H495.86C495.38 36.929 495.05 36.993 494.868 37.121C494.687 37.2383 494.596 37.4677 494.596 37.809V39.361H496.404C496.884 39.361 497.21 39.3023 497.38 39.185C497.562 39.0677 497.652 38.8383 497.652 38.497V34.113C497.311 34.0063 496.836 33.953 496.228 33.953C495.791 33.953 495.332 33.985 494.852 34.049C494.383 34.113 493.903 34.2143 493.412 34.353L493.156 32.945C493.455 32.8383 493.786 32.7477 494.148 32.673C494.522 32.5983 494.911 32.545 495.316 32.513C495.722 32.4703 496.116 32.449 496.5 32.449C497.258 32.449 497.866 32.529 498.324 32.689C498.783 32.8383 499.114 33.089 499.316 33.441C499.519 33.7823 499.62 34.241 499.62 34.817V40.625H498.676L498.164 39.825C497.78 40.1557 497.354 40.401 496.884 40.561C496.426 40.721 495.908 40.801 495.332 40.801ZM503.313 32.625L503.953 33.841C504.39 33.425 504.785 33.105 505.137 32.881C505.489 32.657 505.836 32.4917 506.177 32.385L506.353 34.305C506.14 34.3583 505.905 34.4383 505.649 34.545C505.393 34.641 505.148 34.753 504.913 34.881C504.689 34.9983 504.497 35.121 504.337 35.249V40.625H502.369V32.625H503.313ZM508.078 32.801L510.046 32.529V40.625H508.078V32.801ZM509.07 31.393C508.622 31.393 508.318 31.3183 508.158 31.169C507.998 31.009 507.918 30.7103 507.918 30.273C507.918 29.825 507.998 29.521 508.158 29.361C508.318 29.201 508.622 29.121 509.07 29.121C509.507 29.121 509.806 29.201 509.966 29.361C510.126 29.521 510.206 29.825 510.206 30.273C510.206 30.7103 510.126 31.009 509.966 31.169C509.817 31.3183 509.518 31.393 509.07 31.393ZM516.08 40.801C515.376 40.801 514.79 40.737 514.32 40.609C513.851 40.4703 513.478 40.2463 513.2 39.937C512.923 39.617 512.726 39.1903 512.608 38.657C512.491 38.113 512.432 37.4357 512.432 36.625C512.432 35.8143 512.491 35.1423 512.608 34.609C512.726 34.065 512.923 33.6383 513.2 33.329C513.478 33.009 513.851 32.785 514.32 32.657C514.79 32.5183 515.376 32.449 516.08 32.449C516.795 32.449 517.387 32.5183 517.856 32.657C518.326 32.785 518.694 33.009 518.96 33.329C519.238 33.6383 519.435 34.0597 519.552 34.593C519.67 35.1263 519.728 35.8037 519.728 36.625C519.728 37.4357 519.67 38.113 519.552 38.657C519.435 39.1903 519.238 39.617 518.96 39.937C518.694 40.2463 518.32 40.4703 517.84 40.609C517.371 40.737 516.784 40.801 516.08 40.801ZM514.512 39.249H516.928C517.216 39.249 517.408 39.2223 517.504 39.169C517.611 39.105 517.664 38.993 517.664 38.833V34.001H515.248C514.96 34.001 514.763 34.033 514.656 34.097C514.56 34.1503 514.512 34.257 514.512 34.417V39.249ZM521.609 34.849C521.609 33.9957 521.865 33.3717 522.377 32.977C522.889 32.5823 523.683 32.385 524.761 32.385C525.273 32.385 525.763 32.417 526.233 32.481C526.702 32.5343 527.161 32.6197 527.609 32.737L527.353 34.145C527.086 34.0703 526.777 34.0117 526.425 33.969C526.083 33.9263 525.747 33.905 525.417 33.905C525.097 33.905 524.787 33.921 524.489 33.953C524.19 33.9743 523.929 34.0063 523.705 34.049V35.633C524.59 35.7503 525.31 35.8783 525.865 36.017C526.43 36.145 526.867 36.3103 527.177 36.513C527.486 36.705 527.699 36.945 527.817 37.233C527.945 37.521 528.009 37.8837 528.009 38.321C528.009 38.9183 527.891 39.409 527.657 39.793C527.422 40.1663 527.049 40.4383 526.537 40.609C526.025 40.7797 525.342 40.865 524.489 40.865C523.987 40.865 523.481 40.8223 522.969 40.737C522.457 40.6517 521.95 40.5343 521.449 40.385L521.737 38.865C522.547 39.185 523.422 39.345 524.361 39.345C524.638 39.345 524.889 39.3343 525.113 39.313C525.347 39.281 525.619 39.2277 525.929 39.153V37.553C524.99 37.425 524.233 37.3023 523.657 37.185C523.091 37.057 522.659 36.897 522.361 36.705C522.073 36.513 521.875 36.2677 521.769 35.969C521.662 35.6703 521.609 35.297 521.609 34.849Z" fill="white"/>
<path d="M438.645 63.625V62.9053H440.524V55.9747L438.512 56.2413V55.4949L441.39 55.0951V62.9053H443.016V63.625H438.645ZM444.088 59.4667C444.088 58.4982 444.119 57.7251 444.181 57.1476C444.252 56.5612 444.394 56.1213 444.608 55.8281C444.821 55.5349 445.136 55.3394 445.554 55.2417C445.972 55.1439 446.531 55.0951 447.233 55.0951C447.935 55.0951 448.495 55.1439 448.913 55.2417C449.33 55.3394 449.641 55.5349 449.846 55.8281C450.059 56.1213 450.196 56.5612 450.259 57.1476C450.33 57.7251 450.365 58.4982 450.365 59.4667C450.365 60.2575 450.348 60.915 450.312 61.4392C450.276 61.9634 450.201 62.3855 450.085 62.7054C449.97 63.0252 449.797 63.2651 449.566 63.4251C449.343 63.585 449.041 63.6916 448.659 63.745C448.286 63.7983 447.811 63.8249 447.233 63.8249C446.656 63.8249 446.176 63.7983 445.794 63.745C445.421 63.6916 445.119 63.585 444.888 63.4251C444.656 63.2651 444.483 63.0252 444.368 62.7054C444.252 62.3855 444.177 61.9634 444.141 61.4392C444.106 60.9061 444.088 60.2486 444.088 59.4667ZM445.007 55.8281V62.3855C445.007 62.6698 445.096 62.8609 445.274 62.9586C445.452 63.0475 445.825 63.0919 446.394 63.0919H449.446V56.5345C449.446 56.2502 449.348 56.0636 449.152 55.9747C448.957 55.877 448.566 55.8281 447.98 55.8281H445.007ZM451.758 62.9719C451.758 62.7143 451.798 62.5277 451.878 62.4122C451.966 62.2878 452.149 62.2256 452.424 62.2256C452.691 62.2256 452.868 62.2878 452.957 62.4122C453.046 62.5277 453.09 62.7143 453.09 62.9719C453.09 63.2296 453.046 63.4162 452.957 63.5317C452.868 63.6472 452.691 63.705 452.424 63.705C452.149 63.705 451.966 63.6472 451.878 63.5317C451.798 63.4162 451.758 63.2296 451.758 62.9719ZM451.758 57.6407C451.758 57.3831 451.798 57.1965 451.878 57.081C451.966 56.9566 452.149 56.8944 452.424 56.8944C452.691 56.8944 452.868 56.9566 452.957 57.081C453.046 57.1965 453.09 57.3831 453.09 57.6407C453.09 57.8984 453.046 58.085 452.957 58.2005C452.868 58.316 452.691 58.3738 452.424 58.3738C452.149 58.3738 451.966 58.316 451.878 58.2005C451.798 58.085 451.758 57.8984 451.758 57.6407ZM454.306 59.4667C454.306 58.4982 454.337 57.7251 454.399 57.1476C454.47 56.5612 454.612 56.1213 454.825 55.8281C455.039 55.5349 455.354 55.3394 455.772 55.2417C456.189 55.1439 456.749 55.0951 457.451 55.0951C458.153 55.0951 458.713 55.1439 459.13 55.2417C459.548 55.3394 459.859 55.5349 460.063 55.8281C460.277 56.1213 460.414 56.5612 460.476 57.1476C460.548 57.7251 460.583 58.4982 460.583 59.4667C460.583 60.2575 460.565 60.915 460.53 61.4392C460.494 61.9634 460.419 62.3855 460.303 62.7054C460.188 63.0252 460.014 63.2651 459.783 63.4251C459.561 63.585 459.259 63.6916 458.877 63.745C458.504 63.7983 458.029 63.8249 457.451 63.8249C456.873 63.8249 456.394 63.7983 456.012 63.745C455.638 63.6916 455.336 63.585 455.105 63.4251C454.874 63.2651 454.701 63.0252 454.585 62.7054C454.47 62.3855 454.394 61.9634 454.359 61.4392C454.323 60.9061 454.306 60.2486 454.306 59.4667ZM455.225 55.8281V62.3855C455.225 62.6698 455.314 62.8609 455.492 62.9586C455.67 63.0475 456.043 63.0919 456.611 63.0919H459.663V56.5345C459.663 56.2502 459.566 56.0636 459.37 55.9747C459.175 55.877 458.784 55.8281 458.197 55.8281H455.225ZM462.109 59.4667C462.109 58.4982 462.14 57.7251 462.202 57.1476C462.273 56.5612 462.415 56.1213 462.629 55.8281C462.842 55.5349 463.157 55.3394 463.575 55.2417C463.992 55.1439 464.552 55.0951 465.254 55.0951C465.956 55.0951 466.516 55.1439 466.933 55.2417C467.351 55.3394 467.662 55.5349 467.866 55.8281C468.08 56.1213 468.217 56.5612 468.28 57.1476C468.351 57.7251 468.386 58.4982 468.386 59.4667C468.386 60.2575 468.368 60.915 468.333 61.4392C468.297 61.9634 468.222 62.3855 468.106 62.7054C467.991 63.0252 467.818 63.2651 467.587 63.4251C467.364 63.585 467.062 63.6916 466.68 63.745C466.307 63.7983 465.832 63.8249 465.254 63.8249C464.677 63.8249 464.197 63.7983 463.815 63.745C463.442 63.6916 463.139 63.585 462.908 63.4251C462.677 63.2651 462.504 63.0252 462.389 62.7054C462.273 62.3855 462.198 61.9634 462.162 61.4392C462.127 60.9061 462.109 60.2486 462.109 59.4667ZM463.028 55.8281V62.3855C463.028 62.6698 463.117 62.8609 463.295 62.9586C463.473 63.0475 463.846 63.0919 464.414 63.0919H467.467V56.5345C467.467 56.2502 467.369 56.0636 467.173 55.9747C466.978 55.877 466.587 55.8281 466.001 55.8281H463.028ZM475.131 63.7316C474.429 63.7316 473.931 63.5895 473.638 63.3051C473.345 63.0208 473.198 62.5277 473.198 61.8257C473.198 61.3459 473.234 60.9638 473.305 60.6795C473.385 60.3952 473.554 60.1864 473.811 60.0531C474.069 59.9198 474.464 59.8354 474.998 59.7999C475.531 59.7554 476.255 59.7332 477.17 59.7332H477.703V60.4396H475.104C474.66 60.4396 474.358 60.4974 474.198 60.6129C474.047 60.7284 473.971 60.955 473.971 61.2926V62.9853H476.184C476.628 62.9853 476.926 62.9231 477.077 62.7987C477.228 62.6743 477.303 62.4477 477.303 62.1189V57.774C476.895 57.6496 476.366 57.5874 475.717 57.5874C475.388 57.5874 475.042 57.6141 474.678 57.6674C474.322 57.7207 473.962 57.8007 473.598 57.9073L473.478 57.2276C473.656 57.1565 473.882 57.0943 474.158 57.041C474.433 56.9788 474.727 56.9343 475.038 56.9077C475.357 56.8721 475.655 56.8544 475.93 56.8544C476.499 56.8544 476.943 56.9077 477.263 57.0143C477.592 57.1121 477.823 57.2853 477.956 57.5341C478.099 57.7829 478.17 58.1205 478.17 58.547V63.625H477.81L477.557 62.9586C477.246 63.234 476.895 63.434 476.504 63.5584C476.113 63.6739 475.655 63.7316 475.131 63.7316ZM480.61 63.625V56.961H480.97L481.223 57.6274C481.525 57.352 481.854 57.1565 482.209 57.041C482.573 56.9166 483.004 56.8544 483.502 56.8544C484.124 56.8544 484.586 56.9343 484.888 57.0943C485.199 57.2542 485.355 57.503 485.355 57.8406V63.625H484.488V57.5608H482.822C482.298 57.5608 481.943 57.623 481.756 57.7474C481.569 57.8629 481.476 58.1028 481.476 58.4671V63.625H480.61ZM484.488 63.625V56.961L485.088 57.6274C485.39 57.352 485.719 57.1565 486.074 57.041C486.439 56.9166 486.869 56.8544 487.367 56.8544C487.989 56.8544 488.451 56.9343 488.753 57.0943C489.064 57.2542 489.22 57.503 489.22 57.8406V63.625H488.353V57.5608H486.687C486.163 57.5608 485.808 57.623 485.621 57.7474C485.435 57.8629 485.341 58.1028 485.341 58.4671V63.625H484.488ZM496.38 63.7316C495.678 63.7316 495.18 63.5895 494.887 63.3051C494.594 63.0208 494.447 62.5277 494.447 61.8257C494.447 61.3459 494.483 60.9638 494.554 60.6795C494.634 60.3952 494.802 60.1864 495.06 60.0531C495.318 59.9198 495.713 59.8354 496.246 59.7999C496.779 59.7554 497.504 59.7332 498.419 59.7332H498.952V60.4396H496.353C495.909 60.4396 495.607 60.4974 495.447 60.6129C495.296 60.7284 495.22 60.955 495.22 61.2926V62.9853H497.433C497.877 62.9853 498.174 62.9231 498.325 62.7987C498.477 62.6743 498.552 62.4477 498.552 62.1189V57.774C498.143 57.6496 497.615 57.5874 496.966 57.5874C496.637 57.5874 496.291 57.6141 495.926 57.6674C495.571 57.7207 495.211 57.8007 494.847 57.9073L494.727 57.2276C494.905 57.1565 495.131 57.0943 495.407 57.041C495.682 56.9788 495.975 56.9343 496.286 56.9077C496.606 56.8721 496.904 56.8544 497.179 56.8544C497.748 56.8544 498.192 56.9077 498.512 57.0143C498.841 57.1121 499.072 57.2853 499.205 57.5341C499.347 57.7829 499.418 58.1205 499.418 58.547V63.625H499.059L498.805 62.9586C498.494 63.234 498.143 63.434 497.752 63.5584C497.361 63.6739 496.904 63.7316 496.38 63.7316ZM504.599 63.625V62.7987C504.599 62.3366 504.616 61.9501 504.652 61.6391C504.696 61.3193 504.794 61.0394 504.945 60.7995C505.096 60.5596 505.332 60.333 505.651 60.1197C505.971 59.8976 506.407 59.6577 506.958 59.4C507.517 59.1423 508.224 58.8358 509.077 58.4804V55.9214C508.935 55.8859 508.766 55.8637 508.57 55.8548C508.384 55.837 508.135 55.8281 507.824 55.8281C507.38 55.8281 506.9 55.8503 506.384 55.8948C505.878 55.9392 505.394 56.0014 504.932 56.0814L504.812 55.415C505.132 55.3083 505.509 55.2284 505.945 55.175C506.389 55.1217 506.86 55.0951 507.357 55.0951C508.281 55.0951 508.952 55.255 509.37 55.5749C509.788 55.8948 509.996 56.4101 509.996 57.1209C509.996 57.4675 509.965 57.7696 509.903 58.0272C509.85 58.276 509.739 58.507 509.57 58.7203C509.401 58.9335 509.148 59.1468 508.81 59.36C508.481 59.5644 508.042 59.7954 507.491 60.0531C506.94 60.3108 506.251 60.6129 505.425 60.9594V62.9053H509.85V63.625H504.599ZM513.384 63.8249C512.895 63.8249 512.46 63.7983 512.078 63.745C511.696 63.6916 511.376 63.6117 511.118 63.505L511.212 62.8386C511.576 62.9186 511.998 62.9808 512.478 63.0252C512.958 63.0697 513.415 63.0919 513.851 63.0919C514.624 63.0919 515.13 63.0608 515.37 62.9986V59.8932L513.038 59.6133V59.1601L515.37 58.7869V55.9214C515.13 55.8592 514.744 55.8281 514.21 55.8281C513.775 55.8281 513.313 55.8503 512.824 55.8948C512.344 55.9392 511.918 56.0014 511.545 56.0814L511.478 55.415C511.754 55.3083 512.096 55.2284 512.504 55.175C512.922 55.1217 513.388 55.0951 513.904 55.0951C514.695 55.0951 515.29 55.2861 515.69 55.6682C516.09 56.0503 516.29 56.6234 516.29 57.3875C516.29 57.8229 516.205 58.2183 516.036 58.5737C515.868 58.9291 515.636 59.1912 515.343 59.36V59.4267C515.681 59.6222 515.921 59.8843 516.063 60.213C516.214 60.5329 516.29 60.9461 516.29 61.4525C516.29 62.0567 516.201 62.5321 516.023 62.8786C515.854 63.2252 515.557 63.4695 515.13 63.6117C514.712 63.7538 514.13 63.8249 513.384 63.8249ZM517.548 62.9719C517.548 62.7143 517.588 62.5277 517.668 62.4122C517.757 62.2878 517.939 62.2256 518.214 62.2256C518.481 62.2256 518.659 62.2878 518.748 62.4122C518.836 62.5277 518.881 62.7143 518.881 62.9719C518.881 63.2296 518.836 63.4162 518.748 63.5317C518.659 63.6472 518.481 63.705 518.214 63.705C517.939 63.705 517.757 63.6472 517.668 63.5317C517.588 63.4162 517.548 63.2296 517.548 62.9719ZM517.548 57.6407C517.548 57.3831 517.588 57.1965 517.668 57.081C517.757 56.9566 517.939 56.8944 518.214 56.8944C518.481 56.8944 518.659 56.9566 518.748 57.081C518.836 57.1965 518.881 57.3831 518.881 57.6407C518.881 57.8984 518.836 58.085 518.748 58.2005C518.659 58.316 518.481 58.3738 518.214 58.3738C517.939 58.3738 517.757 58.316 517.668 58.2005C517.588 58.085 517.548 57.8984 517.548 57.6407ZM520.096 59.4667C520.096 58.4982 520.127 57.7251 520.189 57.1476C520.26 56.5612 520.402 56.1213 520.616 55.8281C520.829 55.5349 521.144 55.3394 521.562 55.2417C521.98 55.1439 522.539 55.0951 523.241 55.0951C523.943 55.0951 524.503 55.1439 524.921 55.2417C525.338 55.3394 525.649 55.5349 525.854 55.8281C526.067 56.1213 526.205 56.5612 526.267 57.1476C526.338 57.7251 526.373 58.4982 526.373 59.4667C526.373 60.2575 526.356 60.915 526.32 61.4392C526.285 61.9634 526.209 62.3855 526.094 62.7054C525.978 63.0252 525.805 63.2651 525.574 63.4251C525.352 63.585 525.05 63.6916 524.667 63.745C524.294 63.7983 523.819 63.8249 523.241 63.8249C522.664 63.8249 522.184 63.7983 521.802 63.745C521.429 63.6916 521.127 63.585 520.896 63.4251C520.665 63.2651 520.491 63.0252 520.376 62.7054C520.26 62.3855 520.185 61.9634 520.149 61.4392C520.114 60.9061 520.096 60.2486 520.096 59.4667ZM521.016 55.8281V62.3855C521.016 62.6698 521.104 62.8609 521.282 62.9586C521.46 63.0475 521.833 63.0919 522.402 63.0919H525.454V56.5345C525.454 56.2502 525.356 56.0636 525.161 55.9747C524.965 55.877 524.574 55.8281 523.988 55.8281H521.016ZM527.899 59.4667C527.899 58.4982 527.93 57.7251 527.992 57.1476C528.063 56.5612 528.206 56.1213 528.419 55.8281C528.632 55.5349 528.948 55.3394 529.365 55.2417C529.783 55.1439 530.343 55.0951 531.044 55.0951C531.746 55.0951 532.306 55.1439 532.724 55.2417C533.141 55.3394 533.452 55.5349 533.657 55.8281C533.87 56.1213 534.008 56.5612 534.07 57.1476C534.141 57.7251 534.177 58.4982 534.177 59.4667C534.177 60.2575 534.159 60.915 534.123 61.4392C534.088 61.9634 534.012 62.3855 533.897 62.7054C533.781 63.0252 533.608 63.2651 533.377 63.4251C533.155 63.585 532.853 63.6916 532.471 63.745C532.097 63.7983 531.622 63.8249 531.044 63.8249C530.467 63.8249 529.987 63.7983 529.605 63.745C529.232 63.6916 528.93 63.585 528.699 63.4251C528.468 63.2651 528.294 63.0252 528.179 62.7054C528.063 62.3855 527.988 61.9634 527.952 61.4392C527.917 60.9061 527.899 60.2486 527.899 59.4667ZM528.819 55.8281V62.3855C528.819 62.6698 528.908 62.8609 529.085 62.9586C529.263 63.0475 529.636 63.0919 530.205 63.0919H533.257V56.5345C533.257 56.2502 533.159 56.0636 532.964 55.9747C532.768 55.877 532.377 55.8281 531.791 55.8281H528.819ZM542.401 63.8249C541.796 63.8249 541.317 63.7849 540.961 63.705C540.606 63.6339 540.339 63.4828 540.161 63.2518C539.984 63.0119 539.868 62.6565 539.815 62.1856C539.762 61.7147 539.735 61.0838 539.735 60.293C539.735 59.52 539.762 58.9024 539.815 58.4404C539.868 57.9784 539.984 57.6363 540.161 57.4142C540.339 57.1831 540.606 57.0321 540.961 56.961C541.317 56.8899 541.796 56.8544 542.401 56.8544C542.88 56.8544 543.267 56.8988 543.56 56.9877C543.862 57.0765 544.089 57.2409 544.24 57.4808C544.391 57.7207 544.493 58.0672 544.546 58.5204C544.6 58.9735 544.626 59.5644 544.626 60.293C544.626 61.0305 544.595 61.6347 544.533 62.1056C544.48 62.5676 544.373 62.9231 544.213 63.1718C544.062 63.4206 543.84 63.5895 543.547 63.6783C543.254 63.7761 542.871 63.8249 542.401 63.8249ZM540.361 63.0519H543.094C543.351 63.0519 543.525 63.0297 543.613 62.9853C543.702 62.9408 543.747 62.8564 543.747 62.732V57.6274H541.001C540.761 57.6274 540.592 57.6452 540.495 57.6807C540.406 57.7074 540.361 57.7651 540.361 57.854V63.0519ZM539.495 66.0374V56.961H539.855L540.361 58.1339V65.8908L539.495 66.0374ZM546.686 63.625V56.961H547.046L547.3 57.6274C547.602 57.352 547.93 57.1565 548.286 57.041C548.65 56.9166 549.081 56.8544 549.579 56.8544C550.201 56.8544 550.663 56.9343 550.965 57.0943C551.276 57.2542 551.431 57.503 551.431 57.8406V63.625H550.565V57.5608H548.899C548.375 57.5608 548.019 57.623 547.833 57.7474C547.646 57.8629 547.553 58.1028 547.553 58.4671V63.625H546.686ZM550.565 63.625V56.961L551.165 57.6274C551.467 57.352 551.796 57.1565 552.151 57.041C552.515 56.9166 552.946 56.8544 553.444 56.8544C554.066 56.8544 554.528 56.9343 554.83 57.0943C555.141 57.2542 555.296 57.503 555.296 57.8406V63.625H554.43V57.5608H552.764C552.24 57.5608 551.884 57.623 551.698 57.7474C551.511 57.8629 551.418 58.1028 551.418 58.4671V63.625H550.565Z" fill="white"/>
<path d="M650.867 30.625H654.643C655.486 30.625 656.174 30.6943 656.707 30.833C657.241 30.9717 657.657 31.2277 657.955 31.601C658.254 31.9637 658.462 32.4703 658.579 33.121C658.697 33.761 658.755 34.5983 658.755 35.633C658.755 36.657 658.697 37.4943 658.579 38.145C658.462 38.7957 658.254 39.3023 657.955 39.665C657.657 40.0277 657.241 40.2783 656.707 40.417C656.174 40.5557 655.486 40.625 654.643 40.625H650.867V30.625ZM652.835 32.225V39.025H655.395C655.865 39.025 656.19 38.945 656.371 38.785C656.553 38.6143 656.643 38.321 656.643 37.905V33.345C656.643 32.929 656.553 32.641 656.371 32.481C656.19 32.3103 655.865 32.225 655.395 32.225H652.835ZM661.201 32.801L663.169 32.529V40.625H661.201V32.801ZM662.193 31.393C661.745 31.393 661.441 31.3183 661.281 31.169C661.121 31.009 661.041 30.7103 661.041 30.273C661.041 29.825 661.121 29.521 661.281 29.361C661.441 29.201 661.745 29.121 662.193 29.121C662.63 29.121 662.929 29.201 663.089 29.361C663.249 29.521 663.329 29.825 663.329 30.273C663.329 30.7103 663.249 31.009 663.089 31.169C662.94 31.3183 662.641 31.393 662.193 31.393ZM666.948 32.625L667.588 33.841C668.025 33.425 668.42 33.105 668.772 32.881C669.124 32.657 669.47 32.4917 669.812 32.385L669.988 34.305C669.774 34.3583 669.54 34.4383 669.284 34.545C669.028 34.641 668.782 34.753 668.548 34.881C668.324 34.9983 668.132 35.121 667.972 35.249V40.625H666.004V32.625H666.948ZM674.624 40.801C673.995 40.801 673.462 40.7317 673.024 40.593C672.587 40.4543 672.24 40.2303 671.984 39.921C671.728 39.601 671.542 39.1743 671.424 38.641C671.318 38.097 671.264 37.425 671.264 36.625C671.264 35.5903 671.376 34.769 671.6 34.161C671.824 33.5423 672.198 33.105 672.72 32.849C673.254 32.5823 673.963 32.449 674.848 32.449C675.712 32.449 676.384 32.5237 676.864 32.673C677.344 32.8117 677.68 33.0623 677.872 33.425C678.075 33.777 678.176 34.273 678.176 34.913C678.176 35.457 678.112 35.8997 677.984 36.241C677.856 36.5717 677.622 36.8277 677.28 37.009C676.939 37.1903 676.454 37.3183 675.824 37.393C675.195 37.457 674.368 37.489 673.344 37.489H672.864V36.321H675.104C675.606 36.321 675.947 36.2623 676.128 36.145C676.31 36.017 676.4 35.7823 676.4 35.441V33.985H674.624C674.134 33.985 673.798 34.0437 673.616 34.161C673.435 34.2783 673.344 34.5077 673.344 34.849V39.137C673.558 39.1903 673.787 39.233 674.032 39.265C674.278 39.2863 674.576 39.297 674.928 39.297C675.366 39.297 675.798 39.265 676.224 39.201C676.651 39.137 677.147 39.0357 677.712 38.897L677.968 40.305C677.531 40.465 677.019 40.5877 676.432 40.673C675.856 40.7583 675.254 40.801 674.624 40.801ZM683.326 40.801C682.739 40.801 682.249 40.737 681.854 40.609C681.459 40.4703 681.145 40.2463 680.91 39.937C680.686 39.617 680.521 39.1903 680.414 38.657C680.318 38.113 680.27 37.4357 680.27 36.625C680.27 35.8143 680.318 35.1423 680.414 34.609C680.521 34.065 680.686 33.6383 680.91 33.329C681.145 33.009 681.459 32.785 681.854 32.657C682.249 32.5183 682.739 32.449 683.326 32.449C683.625 32.449 683.934 32.4597 684.254 32.481C684.585 32.5023 684.899 32.5397 685.198 32.593C685.497 32.6357 685.747 32.689 685.95 32.753L685.742 34.193C685.39 34.1077 685.043 34.049 684.702 34.017C684.371 33.9743 684.025 33.953 683.662 33.953C683.171 33.953 682.83 34.049 682.638 34.241C682.446 34.433 682.35 34.7743 682.35 35.265V39.137C682.681 39.2437 683.161 39.297 683.79 39.297C684.142 39.297 684.478 39.265 684.798 39.201C685.129 39.137 685.507 39.0357 685.934 38.897L686.126 40.305C685.742 40.465 685.305 40.5877 684.814 40.673C684.334 40.7583 683.838 40.801 683.326 40.801ZM690.8 40.801C690.214 40.801 689.723 40.737 689.328 40.609C688.934 40.4703 688.619 40.2463 688.384 39.937C688.16 39.617 687.995 39.1903 687.888 38.657C687.792 38.113 687.744 37.4357 687.744 36.625C687.744 35.8143 687.792 35.1423 687.888 34.609C687.995 34.065 688.16 33.6383 688.384 33.329C688.619 33.009 688.934 32.785 689.328 32.657C689.723 32.5183 690.214 32.449 690.8 32.449C691.099 32.449 691.408 32.4597 691.728 32.481C692.059 32.5023 692.374 32.5397 692.672 32.593C692.971 32.6357 693.222 32.689 693.424 32.753L693.216 34.193C692.864 34.1077 692.518 34.049 692.176 34.017C691.846 33.9743 691.499 33.953 691.136 33.953C690.646 33.953 690.304 34.049 690.112 34.241C689.92 34.433 689.824 34.7743 689.824 35.265V39.137C690.155 39.2437 690.635 39.297 691.264 39.297C691.616 39.297 691.952 39.265 692.272 39.201C692.603 39.137 692.982 39.0357 693.408 38.897L693.6 40.305C693.216 40.465 692.779 40.5877 692.288 40.673C691.808 40.7583 691.312 40.801 690.8 40.801ZM695.667 32.801L697.635 32.529V40.625H695.667V32.801ZM696.659 31.393C696.211 31.393 695.907 31.3183 695.747 31.169C695.587 31.009 695.507 30.7103 695.507 30.273C695.507 29.825 695.587 29.521 695.747 29.361C695.907 29.201 696.211 29.121 696.659 29.121C697.096 29.121 697.395 29.201 697.555 29.361C697.715 29.521 697.795 29.825 697.795 30.273C697.795 30.7103 697.715 31.009 697.555 31.169C697.405 31.3183 697.107 31.393 696.659 31.393ZM703.669 40.801C702.965 40.801 702.378 40.737 701.909 40.609C701.44 40.4703 701.066 40.2463 700.789 39.937C700.512 39.617 700.314 39.1903 700.197 38.657C700.08 38.113 700.021 37.4357 700.021 36.625C700.021 35.8143 700.08 35.1423 700.197 34.609C700.314 34.065 700.512 33.6383 700.789 33.329C701.066 33.009 701.44 32.785 701.909 32.657C702.378 32.5183 702.965 32.449 703.669 32.449C704.384 32.449 704.976 32.5183 705.445 32.657C705.914 32.785 706.282 33.009 706.549 33.329C706.826 33.6383 707.024 34.0597 707.141 34.593C707.258 35.1263 707.317 35.8037 707.317 36.625C707.317 37.4357 707.258 38.113 707.141 38.657C707.024 39.1903 706.826 39.617 706.549 39.937C706.282 40.2463 705.909 40.4703 705.429 40.609C704.96 40.737 704.373 40.801 703.669 40.801ZM702.101 39.249H704.517C704.805 39.249 704.997 39.2223 705.093 39.169C705.2 39.105 705.253 38.993 705.253 38.833V34.001H702.837C702.549 34.001 702.352 34.033 702.245 34.097C702.149 34.1503 702.101 34.257 702.101 34.417V39.249ZM709.693 40.625V32.625H710.621L711.149 33.425C711.565 33.0943 712.019 32.849 712.509 32.689C713 32.529 713.555 32.449 714.173 32.449C714.92 32.449 715.491 32.577 715.885 32.833C716.28 33.0783 716.477 33.441 716.477 33.921V40.625H714.509V34.065H712.845C712.397 34.065 712.088 34.1237 711.917 34.241C711.747 34.3477 711.661 34.561 711.661 34.881V40.625H709.693Z" fill="white"/>
<path d="M635.511 55.295H636.377V63.625H635.511V55.295ZM640.062 63.7316C639.822 63.7316 639.64 63.665 639.515 63.5317C639.4 63.3895 639.342 63.1763 639.342 62.892V55.415L640.208 55.1884V62.9586C640.315 62.9675 640.439 62.9764 640.582 62.9853C640.733 62.9941 640.941 63.003 641.208 63.0119L641.141 63.6117C640.884 63.6561 640.666 63.6872 640.488 63.705C640.311 63.7227 640.168 63.7316 640.062 63.7316ZM638.316 57.6007V56.961H641.488V57.6007H638.316ZM644.721 63.7316C644.019 63.7316 643.522 63.5895 643.228 63.3051C642.935 63.0208 642.789 62.5277 642.789 61.8257C642.789 61.3459 642.824 60.9638 642.895 60.6795C642.975 60.3952 643.144 60.1864 643.402 60.0531C643.659 59.9198 644.055 59.8354 644.588 59.7999C645.121 59.7554 645.845 59.7332 646.76 59.7332H647.293V60.4396H644.694C644.25 60.4396 643.948 60.4974 643.788 60.6129C643.637 60.7284 643.562 60.955 643.562 61.2926V62.9853H645.774C646.218 62.9853 646.516 62.9231 646.667 62.7987C646.818 62.6743 646.894 62.4477 646.894 62.1189V57.774C646.485 57.6496 645.956 57.5874 645.308 57.5874C644.979 57.5874 644.632 57.6141 644.268 57.6674C643.913 57.7207 643.553 57.8007 643.188 57.9073L643.068 57.2276C643.246 57.1565 643.473 57.0943 643.748 57.041C644.024 56.9788 644.317 56.9343 644.628 56.9077C644.948 56.8721 645.245 56.8544 645.521 56.8544C646.089 56.8544 646.534 56.9077 646.854 57.0143C647.182 57.1121 647.413 57.2853 647.547 57.5341C647.689 57.7829 647.76 58.1205 647.76 58.547V63.625H647.4L647.147 62.9586C646.836 63.234 646.485 63.434 646.094 63.5584C645.703 63.6739 645.245 63.7316 644.721 63.7316ZM650.973 62.9586C651.035 62.9675 651.12 62.9764 651.226 62.9853C651.342 62.9941 651.457 63.003 651.573 63.0119L651.506 63.6117C651.364 63.6561 651.24 63.6872 651.133 63.705C651.035 63.7227 650.938 63.7316 650.84 63.7316C650.591 63.7316 650.404 63.665 650.28 63.5317C650.164 63.3895 650.107 63.1763 650.107 62.892V54.9618L650.973 54.7619V62.9586ZM653.37 56.9743L654.236 56.8144V63.625H653.37V56.9743ZM653.836 55.5882C653.587 55.5882 653.418 55.5482 653.33 55.4683C653.25 55.3883 653.21 55.2328 653.21 55.0018C653.21 54.7619 653.25 54.6019 653.33 54.522C653.418 54.4331 653.587 54.3887 653.836 54.3887C654.067 54.3887 654.223 54.4331 654.303 54.522C654.383 54.6019 654.423 54.7619 654.423 55.0018C654.423 55.2328 654.383 55.3883 654.303 55.4683C654.231 55.5482 654.076 55.5882 653.836 55.5882ZM658.174 63.7316C657.472 63.7316 656.974 63.5895 656.681 63.3051C656.388 63.0208 656.241 62.5277 656.241 61.8257C656.241 61.3459 656.276 60.9638 656.348 60.6795C656.428 60.3952 656.596 60.1864 656.854 60.0531C657.112 59.9198 657.507 59.8354 658.04 59.7999C658.573 59.7554 659.297 59.7332 660.213 59.7332H660.746V60.4396H658.147C657.703 60.4396 657.4 60.4974 657.241 60.6129C657.089 60.7284 657.014 60.955 657.014 61.2926V62.9853H659.226C659.671 62.9853 659.968 62.9231 660.119 62.7987C660.27 62.6743 660.346 62.4477 660.346 62.1189V57.774C659.937 57.6496 659.409 57.5874 658.76 57.5874C658.431 57.5874 658.085 57.6141 657.72 57.6674C657.365 57.7207 657.005 57.8007 656.641 57.9073L656.521 57.2276C656.699 57.1565 656.925 57.0943 657.201 57.041C657.476 56.9788 657.769 56.9343 658.08 56.9077C658.4 56.8721 658.698 56.8544 658.973 56.8544C659.542 56.8544 659.986 56.9077 660.306 57.0143C660.635 57.1121 660.866 57.2853 660.999 57.5341C661.141 57.7829 661.212 58.1205 661.212 58.547V63.625H660.852L660.599 62.9586C660.288 63.234 659.937 63.434 659.546 63.5584C659.155 63.6739 658.698 63.7316 658.174 63.7316ZM666.086 63.625V62.9053H667.965V55.9747L665.953 56.2413V55.4949L668.831 55.0951V62.9053H670.457V63.625H666.086ZM674.021 63.8249C673.541 63.8249 673.084 63.7983 672.648 63.745C672.213 63.6916 671.84 63.6117 671.529 63.505L671.636 62.8386C672.053 62.9186 672.506 62.9808 672.995 63.0252C673.493 63.0697 673.959 63.0919 674.394 63.0919C674.732 63.0919 675.003 63.0874 675.207 63.0786C675.421 63.0608 675.598 63.0341 675.741 62.9986V60.253L674.594 60.1464C673.999 60.0753 673.515 60.0042 673.142 59.9331C672.777 59.8621 672.497 59.7688 672.302 59.6533C672.106 59.5377 671.973 59.3867 671.902 59.2001C671.831 59.0135 671.795 58.7781 671.795 58.4937L671.929 55.295H676.34L676.26 56.0147H672.795V59.1601L673.581 59.2401C674.408 59.3201 675.043 59.4356 675.487 59.5866C675.932 59.7377 676.238 59.9642 676.407 60.2663C676.576 60.5684 676.66 60.9905 676.66 61.5325C676.66 62.3322 676.451 62.9142 676.034 63.2785C675.616 63.6428 674.945 63.8249 674.021 63.8249ZM680.536 63.8249C680.056 63.8249 679.598 63.7983 679.163 63.745C678.728 63.6916 678.354 63.6117 678.043 63.505L678.15 62.8386C678.568 62.9186 679.021 62.9808 679.51 63.0252C680.007 63.0697 680.474 63.0919 680.909 63.0919C681.247 63.0919 681.518 63.0874 681.722 63.0786C681.935 63.0608 682.113 63.0341 682.255 62.9986V60.253L681.109 60.1464C680.514 60.0753 680.029 60.0042 679.656 59.9331C679.292 59.8621 679.012 59.7688 678.816 59.6533C678.621 59.5377 678.488 59.3867 678.417 59.2001C678.346 59.0135 678.31 58.7781 678.31 58.4937L678.443 55.295H682.855L682.775 56.0147H679.31V59.1601L680.096 59.2401C680.922 59.3201 681.558 59.4356 682.002 59.5866C682.446 59.7377 682.753 59.9642 682.922 60.2663C683.09 60.5684 683.175 60.9905 683.175 61.5325C683.175 62.3322 682.966 62.9142 682.548 63.2785C682.131 63.6428 681.46 63.8249 680.536 63.8249ZM684.491 63.625V62.7987C684.491 62.3366 684.509 61.9501 684.545 61.6391C684.589 61.3193 684.687 61.0394 684.838 60.7995C684.989 60.5596 685.224 60.333 685.544 60.1197C685.864 59.8976 686.3 59.6577 686.85 59.4C687.41 59.1423 688.117 58.8358 688.97 58.4804V55.9214C688.827 55.8859 688.659 55.8637 688.463 55.8548C688.277 55.837 688.028 55.8281 687.717 55.8281C687.273 55.8281 686.793 55.8503 686.277 55.8948C685.771 55.9392 685.287 56.0014 684.825 56.0814L684.705 55.415C685.025 55.3083 685.402 55.2284 685.838 55.175C686.282 55.1217 686.753 55.0951 687.25 55.0951C688.174 55.0951 688.845 55.255 689.263 55.5749C689.68 55.8948 689.889 56.4101 689.889 57.1209C689.889 57.4675 689.858 57.7696 689.796 58.0272C689.743 58.276 689.632 58.507 689.463 58.7203C689.294 58.9335 689.041 59.1468 688.703 59.36C688.374 59.5644 687.934 59.7954 687.384 60.0531C686.833 60.3108 686.144 60.6129 685.318 60.9594V62.9053H689.743V63.625H684.491ZM699.882 63.4784C699.562 63.6028 699.229 63.6916 698.882 63.745C698.536 63.7983 698.14 63.8249 697.696 63.8249C697.101 63.8249 696.617 63.7583 696.243 63.625C695.87 63.4917 695.582 63.2651 695.377 62.9453C695.173 62.6254 695.031 62.1811 694.951 61.6125C694.88 61.0438 694.844 60.3285 694.844 59.4667C694.844 58.587 694.884 57.8629 694.964 57.2942C695.044 56.7255 695.186 56.2813 695.39 55.9614C695.595 55.6415 695.888 55.4194 696.27 55.295C696.661 55.1617 697.163 55.0951 697.776 55.0951C697.945 55.0951 698.14 55.104 698.363 55.1217C698.585 55.1395 698.811 55.1706 699.042 55.215C699.273 55.2506 699.473 55.295 699.642 55.3483L699.535 56.0947C699.296 56.0325 699.033 55.9881 698.749 55.9614C698.465 55.9259 698.194 55.8992 697.936 55.8814C697.678 55.8637 697.47 55.8548 697.31 55.8548C696.785 55.8548 696.395 55.9125 696.137 56.028C695.888 56.1435 695.764 56.4323 695.764 56.8944V62.892C696.012 62.9719 696.288 63.0297 696.59 63.0652C696.892 63.1008 697.208 63.1185 697.536 63.1185C697.918 63.1185 698.292 63.0874 698.656 63.0252C699.029 62.963 699.402 62.8831 699.775 62.7853L699.882 63.4784ZM701.367 56.9743L702.233 56.8144V63.625H701.367V56.9743ZM701.834 55.5882C701.585 55.5882 701.416 55.5482 701.327 55.4683C701.247 55.3883 701.207 55.2328 701.207 55.0018C701.207 54.7619 701.247 54.6019 701.327 54.522C701.416 54.4331 701.585 54.3887 701.834 54.3887C702.065 54.3887 702.22 54.4331 702.3 54.522C702.38 54.6019 702.42 54.7619 702.42 55.0018C702.42 55.2328 702.38 55.3883 702.3 55.4683C702.229 55.5482 702.073 55.5882 701.834 55.5882ZM709.556 56.961V63.625H709.196L708.943 62.9586C708.606 63.2252 708.228 63.4206 707.81 63.545C707.402 63.6694 706.917 63.7316 706.358 63.7316C705.78 63.7316 705.354 63.6339 705.078 63.4384C704.812 63.234 704.678 62.9275 704.678 62.5188V56.961H705.545V62.9853H707.344C707.877 62.9853 708.232 62.9231 708.41 62.7987C708.597 62.6654 708.69 62.421 708.69 62.0656V56.961H709.556ZM713.852 56.8544C714.457 56.8544 714.936 56.8944 715.292 56.9743C715.647 57.0454 715.914 57.1965 716.091 57.4275C716.269 57.6496 716.385 57.9917 716.438 58.4537C716.491 58.9069 716.518 59.52 716.518 60.293C716.518 61.0927 716.491 61.728 716.438 62.1989C716.385 62.6698 716.269 63.0252 716.091 63.2651C715.914 63.4962 715.647 63.6472 715.292 63.7183C714.936 63.7894 714.457 63.8249 713.852 63.8249C713.373 63.8249 712.982 63.7761 712.68 63.6783C712.386 63.5895 712.164 63.4206 712.013 63.1718C711.862 62.9231 711.76 62.5676 711.707 62.1056C711.653 61.6436 711.627 61.0394 711.627 60.293C711.627 59.5644 711.653 58.9735 711.707 58.5204C711.769 58.0672 711.875 57.7207 712.026 57.4808C712.186 57.232 712.413 57.0632 712.706 56.9743C712.999 56.8855 713.381 56.8455 713.852 56.8544ZM715.892 57.6274H713.146C712.897 57.6274 712.728 57.6496 712.64 57.694C712.551 57.7296 712.506 57.814 712.506 57.9473V63.0519H715.238C715.496 63.0519 715.669 63.0297 715.758 62.9853C715.847 62.9408 715.892 62.8564 715.892 62.732V57.6274ZM716.758 54.5486V63.625H716.398L715.892 62.4521V54.6952L716.758 54.5486ZM720.684 63.7316C719.982 63.7316 719.484 63.5895 719.191 63.3051C718.898 63.0208 718.751 62.5277 718.751 61.8257C718.751 61.3459 718.787 60.9638 718.858 60.6795C718.938 60.3952 719.107 60.1864 719.364 60.0531C719.622 59.9198 720.018 59.8354 720.551 59.7999C721.084 59.7554 721.808 59.7332 722.723 59.7332H723.256V60.4396H720.657C720.213 60.4396 719.911 60.4974 719.751 60.6129C719.6 60.7284 719.524 60.955 719.524 61.2926V62.9853H721.737C722.181 62.9853 722.479 62.9231 722.63 62.7987C722.781 62.6743 722.856 62.4477 722.856 62.1189V57.774C722.448 57.6496 721.919 57.5874 721.27 57.5874C720.942 57.5874 720.595 57.6141 720.231 57.6674C719.875 57.7207 719.515 57.8007 719.151 57.9073L719.031 57.2276C719.209 57.1565 719.436 57.0943 719.711 57.041C719.986 56.9788 720.28 56.9343 720.591 56.9077C720.91 56.8721 721.208 56.8544 721.484 56.8544C722.052 56.8544 722.497 56.9077 722.816 57.0143C723.145 57.1121 723.376 57.2853 723.509 57.5341C723.652 57.7829 723.723 58.1205 723.723 58.547V63.625H723.363L723.11 62.9586C722.799 63.234 722.448 63.434 722.057 63.5584C721.666 63.6739 721.208 63.7316 720.684 63.7316ZM727.949 56.8544C728.553 56.8544 729.033 56.8944 729.388 56.9743C729.744 57.0454 730.01 57.1965 730.188 57.4275C730.366 57.6496 730.481 57.9917 730.534 58.4537C730.588 58.9069 730.614 59.52 730.614 60.293C730.614 61.0927 730.588 61.728 730.534 62.1989C730.481 62.6698 730.366 63.0252 730.188 63.2651C730.01 63.4962 729.744 63.6472 729.388 63.7183C729.033 63.7894 728.553 63.8249 727.949 63.8249C727.469 63.8249 727.078 63.7761 726.776 63.6783C726.483 63.5895 726.261 63.4206 726.11 63.1718C725.958 62.9231 725.856 62.5676 725.803 62.1056C725.75 61.6436 725.723 61.0394 725.723 60.293C725.723 59.5644 725.75 58.9735 725.803 58.5204C725.865 58.0672 725.972 57.7207 726.123 57.4808C726.283 57.232 726.509 57.0632 726.803 56.9743C727.096 56.8855 727.478 56.8455 727.949 56.8544ZM729.988 57.6274H727.242C726.994 57.6274 726.825 57.6496 726.736 57.694C726.647 57.7296 726.603 57.814 726.603 57.9473V63.0519H729.335C729.593 63.0519 729.766 63.0297 729.855 62.9853C729.944 62.9408 729.988 62.8564 729.988 62.732V57.6274ZM730.854 54.5486V63.625H730.494L729.988 62.4521V54.6952L730.854 54.5486Z" fill="white"/>
<path d="M827.283 32.257V40.625H825.315V32.257H822.771V30.625H829.827V32.257H827.283ZM833.683 40.801C833.054 40.801 832.521 40.7317 832.083 40.593C831.646 40.4543 831.299 40.2303 831.043 39.921C830.787 39.601 830.601 39.1743 830.483 38.641C830.377 38.097 830.323 37.425 830.323 36.625C830.323 35.5903 830.435 34.769 830.659 34.161C830.883 33.5423 831.257 33.105 831.779 32.849C832.313 32.5823 833.022 32.449 833.907 32.449C834.771 32.449 835.443 32.5237 835.923 32.673C836.403 32.8117 836.739 33.0623 836.931 33.425C837.134 33.777 837.235 34.273 837.235 34.913C837.235 35.457 837.171 35.8997 837.043 36.241C836.915 36.5717 836.681 36.8277 836.339 37.009C835.998 37.1903 835.513 37.3183 834.883 37.393C834.254 37.457 833.427 37.489 832.403 37.489H831.923V36.321H834.163C834.665 36.321 835.006 36.2623 835.187 36.145C835.369 36.017 835.459 35.7823 835.459 35.441V33.985H833.683C833.193 33.985 832.857 34.0437 832.675 34.161C832.494 34.2783 832.403 34.5077 832.403 34.849V39.137C832.617 39.1903 832.846 39.233 833.091 39.265C833.337 39.2863 833.635 39.297 833.987 39.297C834.425 39.297 834.857 39.265 835.283 39.201C835.71 39.137 836.206 39.0357 836.771 38.897L837.027 40.305C836.59 40.465 836.078 40.5877 835.491 40.673C834.915 40.7583 834.313 40.801 833.683 40.801ZM841.681 39.185C841.788 39.2063 841.905 39.2277 842.033 39.249C842.172 39.2597 842.305 39.2703 842.433 39.281L842.321 40.609C842.086 40.673 841.868 40.721 841.665 40.753C841.473 40.785 841.286 40.801 841.105 40.801C840.636 40.801 840.284 40.6943 840.049 40.481C839.825 40.257 839.713 39.921 839.713 39.473V30.225L841.681 29.985V39.185ZM847.413 40.801C846.784 40.801 846.251 40.7317 845.813 40.593C845.376 40.4543 845.029 40.2303 844.773 39.921C844.517 39.601 844.331 39.1743 844.213 38.641C844.107 38.097 844.053 37.425 844.053 36.625C844.053 35.5903 844.165 34.769 844.389 34.161C844.613 33.5423 844.987 33.105 845.509 32.849C846.043 32.5823 846.752 32.449 847.637 32.449C848.501 32.449 849.173 32.5237 849.653 32.673C850.133 32.8117 850.469 33.0623 850.661 33.425C850.864 33.777 850.965 34.273 850.965 34.913C850.965 35.457 850.901 35.8997 850.773 36.241C850.645 36.5717 850.411 36.8277 850.069 37.009C849.728 37.1903 849.243 37.3183 848.613 37.393C847.984 37.457 847.157 37.489 846.133 37.489H845.653V36.321H847.893C848.395 36.321 848.736 36.2623 848.917 36.145C849.099 36.017 849.189 35.7823 849.189 35.441V33.985H847.413C846.923 33.985 846.587 34.0437 846.405 34.161C846.224 34.2783 846.133 34.5077 846.133 34.849V39.137C846.347 39.1903 846.576 39.233 846.821 39.265C847.067 39.2863 847.365 39.297 847.717 39.297C848.155 39.297 848.587 39.265 849.013 39.201C849.44 39.137 849.936 39.0357 850.501 38.897L850.757 40.305C850.32 40.465 849.808 40.5877 849.221 40.673C848.645 40.7583 848.043 40.801 847.413 40.801ZM855.955 40.625H853.987V32.705C854.03 31.969 854.12 31.393 854.259 30.977C854.398 30.5503 854.616 30.2517 854.915 30.081C855.224 29.9103 855.635 29.825 856.147 29.825C856.392 29.825 856.643 29.841 856.899 29.873C857.155 29.8943 857.416 29.9317 857.683 29.985L857.571 31.313L855.955 31.169V40.625ZM857.155 32.625V33.953H852.931V32.625H857.155ZM862.369 40.801C861.665 40.801 861.078 40.737 860.609 40.609C860.139 40.4703 859.766 40.2463 859.489 39.937C859.211 39.617 859.014 39.1903 858.897 38.657C858.779 38.113 858.721 37.4357 858.721 36.625C858.721 35.8143 858.779 35.1423 858.897 34.609C859.014 34.065 859.211 33.6383 859.489 33.329C859.766 33.009 860.139 32.785 860.609 32.657C861.078 32.5183 861.665 32.449 862.369 32.449C863.083 32.449 863.675 32.5183 864.145 32.657C864.614 32.785 864.982 33.009 865.249 33.329C865.526 33.6383 865.723 34.0597 865.841 34.593C865.958 35.1263 866.017 35.8037 866.017 36.625C866.017 37.4357 865.958 38.113 865.841 38.657C865.723 39.1903 865.526 39.617 865.249 39.937C864.982 40.2463 864.609 40.4703 864.129 40.609C863.659 40.737 863.073 40.801 862.369 40.801ZM860.801 39.249H863.217C863.505 39.249 863.697 39.2223 863.793 39.169C863.899 39.105 863.953 38.993 863.953 38.833V34.001H861.537C861.249 34.001 861.051 34.033 860.945 34.097C860.849 34.1503 860.801 34.257 860.801 34.417V39.249ZM868.393 40.625V32.625H869.321L869.849 33.425C870.265 33.0943 870.719 32.849 871.209 32.689C871.7 32.529 872.255 32.449 872.873 32.449C873.62 32.449 874.191 32.577 874.585 32.833C874.98 33.0783 875.177 33.441 875.177 33.921V40.625H873.209V34.065H871.545C871.097 34.065 870.788 34.1237 870.617 34.241C870.447 34.3477 870.361 34.561 870.361 34.881V40.625H868.393ZM881.114 40.801C880.41 40.801 879.824 40.737 879.354 40.609C878.885 40.4703 878.512 40.2463 878.234 39.937C877.957 39.617 877.76 39.1903 877.642 38.657C877.525 38.113 877.466 37.4357 877.466 36.625C877.466 35.8143 877.525 35.1423 877.642 34.609C877.76 34.065 877.957 33.6383 878.234 33.329C878.512 33.009 878.885 32.785 879.354 32.657C879.824 32.5183 880.41 32.449 881.114 32.449C881.829 32.449 882.421 32.5183 882.89 32.657C883.36 32.785 883.728 33.009 883.994 33.329C884.272 33.6383 884.469 34.0597 884.586 34.593C884.704 35.1263 884.762 35.8037 884.762 36.625C884.762 37.4357 884.704 38.113 884.586 38.657C884.469 39.1903 884.272 39.617 883.994 39.937C883.728 40.2463 883.354 40.4703 882.874 40.609C882.405 40.737 881.818 40.801 881.114 40.801ZM879.546 39.249H881.962C882.25 39.249 882.442 39.2223 882.538 39.169C882.645 39.105 882.698 38.993 882.698 38.833V34.001H880.282C879.994 34.001 879.797 34.033 879.69 34.097C879.594 34.1503 879.546 34.257 879.546 34.417V39.249ZM886.643 34.849C886.643 33.9957 886.899 33.3717 887.411 32.977C887.923 32.5823 888.717 32.385 889.795 32.385C890.307 32.385 890.797 32.417 891.267 32.481C891.736 32.5343 892.195 32.6197 892.643 32.737L892.387 34.145C892.12 34.0703 891.811 34.0117 891.459 33.969C891.117 33.9263 890.781 33.905 890.451 33.905C890.131 33.905 889.821 33.921 889.523 33.953C889.224 33.9743 888.963 34.0063 888.739 34.049V35.633C889.624 35.7503 890.344 35.8783 890.899 36.017C891.464 36.145 891.901 36.3103 892.211 36.513C892.52 36.705 892.733 36.945 892.851 37.233C892.979 37.521 893.043 37.8837 893.043 38.321C893.043 38.9183 892.925 39.409 892.691 39.793C892.456 40.1663 892.083 40.4383 891.571 40.609C891.059 40.7797 890.376 40.865 889.523 40.865C889.021 40.865 888.515 40.8223 888.003 40.737C887.491 40.6517 886.984 40.5343 886.483 40.385L886.771 38.865C887.581 39.185 888.456 39.345 889.395 39.345C889.672 39.345 889.923 39.3343 890.147 39.313C890.381 39.281 890.653 39.2277 890.963 39.153V37.553C890.024 37.425 889.267 37.3023 888.691 37.185C888.125 37.057 887.693 36.897 887.395 36.705C887.107 36.513 886.909 36.2677 886.803 35.969C886.696 35.6703 886.643 35.297 886.643 34.849Z" fill="white"/>
<path d="M811.338 59.0802H815.989V59.8532H811.338V59.0802ZM813.27 61.7857V57.1343H814.043V61.7857H813.27ZM811.338 59.0802H815.989V59.8532H811.338V59.0802ZM820.311 63.8249C819.831 63.8249 819.374 63.7983 818.938 63.745C818.503 63.6916 818.13 63.6117 817.819 63.505L817.926 62.8386C818.343 62.9186 818.796 62.9808 819.285 63.0252C819.783 63.0697 820.249 63.0919 820.684 63.0919C821.022 63.0919 821.293 63.0874 821.497 63.0786C821.711 63.0608 821.888 63.0341 822.031 62.9986V60.253L820.884 60.1464C820.289 60.0753 819.805 60.0042 819.432 59.9331C819.067 59.8621 818.787 59.7688 818.592 59.6533C818.396 59.5377 818.263 59.3867 818.192 59.2001C818.121 59.0135 818.085 58.7781 818.085 58.4937L818.219 55.295H822.63L822.55 56.0147H819.085V59.1601L819.871 59.2401C820.698 59.3201 821.333 59.4356 821.777 59.5866C822.222 59.7377 822.528 59.9642 822.697 60.2663C822.866 60.5684 822.95 60.9905 822.95 61.5325C822.95 62.3322 822.741 62.9142 822.324 63.2785C821.906 63.6428 821.235 63.8249 820.311 63.8249ZM828.372 61.6258H823.934V61.2793L827.266 55.295H829.238V60.8928H830.078V61.6258H829.238V63.625H828.372V61.6258ZM825.093 60.8928H828.372V55.9481H827.799L825.093 60.8928ZM834.693 63.625V62.7987C834.693 62.3366 834.711 61.9501 834.746 61.6391C834.791 61.3193 834.888 61.0394 835.039 60.7995C835.19 60.5596 835.426 60.333 835.746 60.1197C836.066 59.8976 836.501 59.6577 837.052 59.4C837.612 59.1423 838.318 58.8358 839.171 58.4804V55.9214C839.029 55.8859 838.86 55.8637 838.665 55.8548C838.478 55.837 838.229 55.8281 837.918 55.8281C837.474 55.8281 836.994 55.8503 836.479 55.8948C835.972 55.9392 835.488 56.0014 835.026 56.0814L834.906 55.415C835.226 55.3083 835.604 55.2284 836.039 55.175C836.483 55.1217 836.954 55.0951 837.452 55.0951C838.376 55.0951 839.047 55.255 839.464 55.5749C839.882 55.8948 840.091 56.4101 840.091 57.1209C840.091 57.4675 840.06 57.7696 839.997 58.0272C839.944 58.276 839.833 58.507 839.664 58.7203C839.495 58.9335 839.242 59.1468 838.905 59.36C838.576 59.5644 838.136 59.7954 837.585 60.0531C837.034 60.3108 836.346 60.6129 835.519 60.9594V62.9053H839.944V63.625H834.693ZM846.251 59.6799H843.412C843.03 59.6799 842.776 59.7155 842.652 59.7865C842.528 59.8576 842.465 60.0087 842.465 60.2397V63.1319H845.304C845.695 63.1319 845.949 63.0963 846.064 63.0252C846.188 62.9453 846.251 62.7942 846.251 62.5721V59.6799ZM847.17 61.226C847.17 61.8746 847.081 62.3899 846.904 62.772C846.735 63.1541 846.446 63.4251 846.037 63.585C845.629 63.745 845.069 63.8249 844.358 63.8249C843.736 63.8249 843.239 63.7716 842.865 63.665C842.492 63.5672 842.208 63.3718 842.012 63.0786C841.826 62.7765 841.701 62.3366 841.639 61.7591C841.577 61.1815 841.546 60.4174 841.546 59.4667C841.546 58.5781 841.586 57.8495 841.666 57.2809C841.755 56.7122 841.906 56.2679 842.119 55.9481C842.332 55.6282 842.634 55.4061 843.025 55.2817C843.416 55.1573 843.918 55.0951 844.531 55.0951C844.753 55.0951 845.011 55.1129 845.304 55.1484C845.606 55.175 845.895 55.215 846.171 55.2683C846.446 55.3128 846.659 55.3616 846.81 55.415L846.704 56.0814C846.402 56.0103 846.02 55.9525 845.558 55.9081C845.096 55.8548 844.66 55.8281 844.251 55.8281C843.869 55.8281 843.501 55.837 843.145 55.8548C842.799 55.8725 842.572 55.8903 842.465 55.9081V58.9202H844.838C845.655 58.9202 846.246 59.1024 846.611 59.4667C846.984 59.831 847.17 60.4174 847.17 61.226ZM848.248 63.625V62.9053H850.128V55.9747L848.115 56.2413V55.4949L850.994 55.0951V62.9053H852.62V63.625H848.248ZM861.629 59.6799H858.791C858.408 59.6799 858.155 59.7155 858.031 59.7865C857.906 59.8576 857.844 60.0087 857.844 60.2397V63.1319H860.683C861.074 63.1319 861.327 63.0963 861.443 63.0252C861.567 62.9453 861.629 62.7942 861.629 62.5721V59.6799ZM862.549 61.226C862.549 61.8746 862.46 62.3899 862.282 62.772C862.114 63.1541 861.825 63.4251 861.416 63.585C861.007 63.745 860.448 63.8249 859.737 63.8249C859.115 63.8249 858.617 63.7716 858.244 63.665C857.871 63.5672 857.587 63.3718 857.391 63.0786C857.204 62.7765 857.08 62.3366 857.018 61.7591C856.956 61.1815 856.925 60.4174 856.925 59.4667C856.925 58.5781 856.965 57.8495 857.045 57.2809C857.133 56.7122 857.284 56.2679 857.498 55.9481C857.711 55.6282 858.013 55.4061 858.404 55.2817C858.795 55.1573 859.297 55.0951 859.91 55.0951C860.132 55.0951 860.39 55.1129 860.683 55.1484C860.985 55.175 861.274 55.215 861.549 55.2683C861.825 55.3128 862.038 55.3616 862.189 55.415L862.083 56.0814C861.78 56.0103 861.398 55.9525 860.936 55.9081C860.474 55.8548 860.039 55.8281 859.63 55.8281C859.248 55.8281 858.879 55.837 858.524 55.8548C858.177 55.8725 857.951 55.8903 857.844 55.9081V58.9202H860.217C861.034 58.9202 861.625 59.1024 861.989 59.4667C862.362 59.831 862.549 60.4174 862.549 61.226ZM863.627 63.625V62.9053H865.506V55.9747L863.494 56.2413V55.4949L866.373 55.0951V62.9053H867.999V63.625H863.627ZM868.697 63.625V62.9053H870.576V55.9747L868.564 56.2413V55.4949L871.443 55.0951V62.9053H873.069V63.625H868.697ZM882.078 59.6799H879.239C878.857 59.6799 878.604 59.7155 878.479 59.7865C878.355 59.8576 878.293 60.0087 878.293 60.2397V63.1319H881.132C881.523 63.1319 881.776 63.0963 881.891 63.0252C882.016 62.9453 882.078 62.7942 882.078 62.5721V59.6799ZM882.998 61.226C882.998 61.8746 882.909 62.3899 882.731 62.772C882.562 63.1541 882.273 63.4251 881.865 63.585C881.456 63.745 880.896 63.8249 880.185 63.8249C879.563 63.8249 879.066 63.7716 878.693 63.665C878.319 63.5672 878.035 63.3718 877.84 63.0786C877.653 62.7765 877.529 62.3366 877.466 61.7591C877.404 61.1815 877.373 60.4174 877.373 59.4667C877.373 58.5781 877.413 57.8495 877.493 57.2809C877.582 56.7122 877.733 56.2679 877.946 55.9481C878.16 55.6282 878.462 55.4061 878.853 55.2817C879.244 55.1573 879.746 55.0951 880.359 55.0951C880.581 55.0951 880.838 55.1129 881.132 55.1484C881.434 55.175 881.723 55.215 881.998 55.2683C882.273 55.3128 882.487 55.3616 882.638 55.415L882.531 56.0814C882.229 56.0103 881.847 55.9525 881.385 55.9081C880.923 55.8548 880.488 55.8281 880.079 55.8281C879.697 55.8281 879.328 55.837 878.973 55.8548C878.626 55.8725 878.399 55.8903 878.293 55.9081V58.9202H880.665C881.483 58.9202 882.074 59.1024 882.438 59.4667C882.811 59.831 882.998 60.4174 882.998 61.226ZM886.315 63.8249C885.826 63.8249 885.391 63.7983 885.009 63.745C884.627 63.6916 884.307 63.6117 884.049 63.505L884.142 62.8386C884.507 62.9186 884.929 62.9808 885.409 63.0252C885.888 63.0697 886.346 63.0919 886.781 63.0919C887.554 63.0919 888.061 63.0608 888.301 62.9986V59.8932L885.968 59.6133V59.1601L888.301 58.7869V55.9214C888.061 55.8592 887.674 55.8281 887.141 55.8281C886.706 55.8281 886.244 55.8503 885.755 55.8948C885.275 55.9392 884.849 56.0014 884.476 56.0814L884.409 55.415C884.684 55.3083 885.027 55.2284 885.435 55.175C885.853 55.1217 886.319 55.0951 886.835 55.0951C887.626 55.0951 888.221 55.2861 888.621 55.6682C889.021 56.0503 889.22 56.6234 889.22 57.3875C889.22 57.8229 889.136 58.2183 888.967 58.5737C888.798 58.9291 888.567 59.1912 888.274 59.36V59.4267C888.612 59.6222 888.852 59.8843 888.994 60.213C889.145 60.5329 889.22 60.9461 889.22 61.4525C889.22 62.0567 889.132 62.5321 888.954 62.8786C888.785 63.2252 888.487 63.4695 888.061 63.6117C887.643 63.7538 887.061 63.8249 886.315 63.8249ZM894.651 61.6258H890.212V61.2793L893.544 55.295H895.517V60.8928H896.357V61.6258H895.517V63.625H894.651V61.6258ZM891.372 60.8928H894.651V55.9481H894.077L891.372 60.8928ZM900.231 63.8249C899.751 63.8249 899.293 63.7983 898.858 63.745C898.423 63.6916 898.049 63.6117 897.738 63.505L897.845 62.8386C898.263 62.9186 898.716 62.9808 899.205 63.0252C899.702 63.0697 900.169 63.0919 900.604 63.0919C900.942 63.0919 901.213 63.0874 901.417 63.0786C901.63 63.0608 901.808 63.0341 901.95 62.9986V60.253L900.804 60.1464C900.209 60.0753 899.724 60.0042 899.351 59.9331C898.987 59.8621 898.707 59.7688 898.512 59.6533C898.316 59.5377 898.183 59.3867 898.112 59.2001C898.041 59.0135 898.005 58.7781 898.005 58.4937L898.138 55.295H902.55L902.47 56.0147H899.005V59.1601L899.791 59.2401C900.617 59.3201 901.253 59.4356 901.697 59.5866C902.141 59.7377 902.448 59.9642 902.617 60.2663C902.785 60.5684 902.87 60.9905 902.87 61.5325C902.87 62.3322 902.661 62.9142 902.243 63.2785C901.826 63.6428 901.155 63.8249 900.231 63.8249ZM811.338 75.0802H815.989V75.8532H811.338V75.0802ZM813.27 77.7857V73.1343H814.043V77.7857H813.27ZM811.338 75.0802H815.989V75.8532H811.338V75.0802ZM820.311 79.8249C819.831 79.8249 819.374 79.7983 818.938 79.745C818.503 79.6916 818.13 79.6117 817.819 79.505L817.926 78.8386C818.343 78.9186 818.796 78.9808 819.285 79.0252C819.783 79.0697 820.249 79.0919 820.684 79.0919C821.022 79.0919 821.293 79.0874 821.497 79.0786C821.711 79.0608 821.888 79.0341 822.031 78.9986V76.253L820.884 76.1464C820.289 76.0753 819.805 76.0042 819.432 75.9331C819.067 75.8621 818.787 75.7688 818.592 75.6533C818.396 75.5377 818.263 75.3867 818.192 75.2001C818.121 75.0135 818.085 74.7781 818.085 74.4937L818.219 71.295H822.63L822.55 72.0147H819.085V75.1601L819.871 75.2401C820.698 75.3201 821.333 75.4356 821.777 75.5866C822.222 75.7377 822.528 75.9642 822.697 76.2663C822.866 76.5684 822.95 76.9905 822.95 77.5325C822.95 78.3322 822.741 78.9142 822.324 79.2785C821.906 79.6428 821.235 79.8249 820.311 79.8249ZM828.372 77.6258H823.934V77.2793L827.266 71.295H829.238V76.8928H830.078V77.6258H829.238V79.625H828.372V77.6258ZM825.093 76.8928H828.372V71.9481H827.799L825.093 76.8928ZM834.693 79.625V78.7987C834.693 78.3366 834.711 77.9501 834.746 77.6391C834.791 77.3193 834.888 77.0394 835.039 76.7995C835.19 76.5596 835.426 76.333 835.746 76.1197C836.066 75.8976 836.501 75.6577 837.052 75.4C837.612 75.1423 838.318 74.8358 839.171 74.4804V71.9214C839.029 71.8859 838.86 71.8637 838.665 71.8548C838.478 71.837 838.229 71.8281 837.918 71.8281C837.474 71.8281 836.994 71.8503 836.479 71.8948C835.972 71.9392 835.488 72.0014 835.026 72.0814L834.906 71.415C835.226 71.3083 835.604 71.2284 836.039 71.175C836.483 71.1217 836.954 71.0951 837.452 71.0951C838.376 71.0951 839.047 71.255 839.464 71.5749C839.882 71.8948 840.091 72.4101 840.091 73.1209C840.091 73.4675 840.06 73.7696 839.997 74.0272C839.944 74.276 839.833 74.507 839.664 74.7203C839.495 74.9335 839.242 75.1468 838.905 75.36C838.576 75.5644 838.136 75.7954 837.585 76.0531C837.034 76.3108 836.346 76.6129 835.519 76.9594V78.9053H839.944V79.625H834.693ZM846.251 75.6799H843.412C843.03 75.6799 842.776 75.7155 842.652 75.7865C842.528 75.8576 842.465 76.0087 842.465 76.2397V79.1319H845.304C845.695 79.1319 845.949 79.0963 846.064 79.0252C846.188 78.9453 846.251 78.7942 846.251 78.5721V75.6799ZM847.17 77.226C847.17 77.8746 847.081 78.3899 846.904 78.772C846.735 79.1541 846.446 79.4251 846.037 79.585C845.629 79.745 845.069 79.8249 844.358 79.8249C843.736 79.8249 843.239 79.7716 842.865 79.665C842.492 79.5672 842.208 79.3718 842.012 79.0786C841.826 78.7765 841.701 78.3366 841.639 77.7591C841.577 77.1815 841.546 76.4174 841.546 75.4667C841.546 74.5781 841.586 73.8495 841.666 73.2809C841.755 72.7122 841.906 72.2679 842.119 71.9481C842.332 71.6282 842.634 71.4061 843.025 71.2817C843.416 71.1573 843.918 71.0951 844.531 71.0951C844.753 71.0951 845.011 71.1129 845.304 71.1484C845.606 71.175 845.895 71.215 846.171 71.2683C846.446 71.3128 846.659 71.3616 846.81 71.415L846.704 72.0814C846.402 72.0103 846.02 71.9525 845.558 71.9081C845.096 71.8548 844.66 71.8281 844.251 71.8281C843.869 71.8281 843.501 71.837 843.145 71.8548C842.799 71.8725 842.572 71.8903 842.465 71.9081V74.9202H844.838C845.655 74.9202 846.246 75.1024 846.611 75.4667C846.984 75.831 847.17 76.4174 847.17 77.226ZM848.248 79.625V78.9053H850.128V71.9747L848.115 72.2413V71.4949L850.994 71.0951V78.9053H852.62V79.625H848.248ZM861.629 75.6799H858.791C858.408 75.6799 858.155 75.7155 858.031 75.7865C857.906 75.8576 857.844 76.0087 857.844 76.2397V79.1319H860.683C861.074 79.1319 861.327 79.0963 861.443 79.0252C861.567 78.9453 861.629 78.7942 861.629 78.5721V75.6799ZM862.549 77.226C862.549 77.8746 862.46 78.3899 862.282 78.772C862.114 79.1541 861.825 79.4251 861.416 79.585C861.007 79.745 860.448 79.8249 859.737 79.8249C859.115 79.8249 858.617 79.7716 858.244 79.665C857.871 79.5672 857.587 79.3718 857.391 79.0786C857.204 78.7765 857.08 78.3366 857.018 77.7591C856.956 77.1815 856.925 76.4174 856.925 75.4667C856.925 74.5781 856.965 73.8495 857.045 73.2809C857.133 72.7122 857.284 72.2679 857.498 71.9481C857.711 71.6282 858.013 71.4061 858.404 71.2817C858.795 71.1573 859.297 71.0951 859.91 71.0951C860.132 71.0951 860.39 71.1129 860.683 71.1484C860.985 71.175 861.274 71.215 861.549 71.2683C861.825 71.3128 862.038 71.3616 862.189 71.415L862.083 72.0814C861.78 72.0103 861.398 71.9525 860.936 71.9081C860.474 71.8548 860.039 71.8281 859.63 71.8281C859.248 71.8281 858.879 71.837 858.524 71.8548C858.177 71.8725 857.951 71.8903 857.844 71.9081V74.9202H860.217C861.034 74.9202 861.625 75.1024 861.989 75.4667C862.362 75.831 862.549 76.4174 862.549 77.226ZM863.627 79.625V78.9053H865.506V71.9747L863.494 72.2413V71.4949L866.373 71.0951V78.9053H867.999V79.625H863.627ZM869.004 79.625V78.7987C869.004 78.3366 869.021 77.9501 869.057 77.6391C869.101 77.3193 869.199 77.0394 869.35 76.7995C869.501 76.5596 869.737 76.333 870.057 76.1197C870.376 75.8976 870.812 75.6577 871.363 75.4C871.922 75.1423 872.629 74.8358 873.482 74.4804V71.9214C873.34 71.8859 873.171 71.8637 872.975 71.8548C872.789 71.837 872.54 71.8281 872.229 71.8281C871.785 71.8281 871.305 71.8503 870.79 71.8948C870.283 71.9392 869.799 72.0014 869.337 72.0814L869.217 71.415C869.537 71.3083 869.914 71.2284 870.35 71.175C870.794 71.1217 871.265 71.0951 871.763 71.0951C872.687 71.0951 873.357 71.255 873.775 71.5749C874.193 71.8948 874.401 72.4101 874.401 73.1209C874.401 73.4675 874.37 73.7696 874.308 74.0272C874.255 74.276 874.144 74.507 873.975 74.7203C873.806 74.9335 873.553 75.1468 873.215 75.36C872.887 75.5644 872.447 75.7954 871.896 76.0531C871.345 76.3108 870.656 76.6129 869.83 76.9594V78.9053H874.255V79.625H869.004ZM883.861 75.6799H881.022C880.64 75.6799 880.387 75.7155 880.263 75.7865C880.138 75.8576 880.076 76.0087 880.076 76.2397V79.1319H882.915C883.306 79.1319 883.559 79.0963 883.675 79.0252C883.799 78.9453 883.861 78.7942 883.861 78.5721V75.6799ZM884.781 77.226C884.781 77.8746 884.692 78.3899 884.514 78.772C884.345 79.1541 884.057 79.4251 883.648 79.585C883.239 79.745 882.679 79.8249 881.969 79.8249C881.347 79.8249 880.849 79.7716 880.476 79.665C880.103 79.5672 879.818 79.3718 879.623 79.0786C879.436 78.7765 879.312 78.3366 879.25 77.7591C879.187 77.1815 879.156 76.4174 879.156 75.4667C879.156 74.5781 879.196 73.8495 879.276 73.2809C879.365 72.7122 879.516 72.2679 879.729 71.9481C879.943 71.6282 880.245 71.4061 880.636 71.2817C881.027 71.1573 881.529 71.0951 882.142 71.0951C882.364 71.0951 882.622 71.1129 882.915 71.1484C883.217 71.175 883.506 71.215 883.781 71.2683C884.057 71.3128 884.27 71.3616 884.421 71.415L884.314 72.0814C884.012 72.0103 883.63 71.9525 883.168 71.9081C882.706 71.8548 882.271 71.8281 881.862 71.8281C881.48 71.8281 881.111 71.837 880.756 71.8548C880.409 71.8725 880.183 71.8903 880.076 71.9081V74.9202H882.448C883.266 74.9202 883.857 75.1024 884.221 75.4667C884.594 75.831 884.781 76.4174 884.781 77.226ZM890.87 75.6799H888.031C887.649 75.6799 887.396 75.7155 887.272 75.7865C887.147 75.8576 887.085 76.0087 887.085 76.2397V79.1319H889.924C890.315 79.1319 890.568 79.0963 890.684 79.0252C890.808 78.9453 890.87 78.7942 890.87 78.5721V75.6799ZM891.79 77.226C891.79 77.8746 891.701 78.3899 891.523 78.772C891.355 79.1541 891.066 79.4251 890.657 79.585C890.248 79.745 889.689 79.8249 888.978 79.8249C888.356 79.8249 887.858 79.7716 887.485 79.665C887.112 79.5672 886.827 79.3718 886.632 79.0786C886.445 78.7765 886.321 78.3366 886.259 77.7591C886.197 77.1815 886.166 76.4174 886.166 75.4667C886.166 74.5781 886.205 73.8495 886.285 73.2809C886.374 72.7122 886.525 72.2679 886.739 71.9481C886.952 71.6282 887.254 71.4061 887.645 71.2817C888.036 71.1573 888.538 71.0951 889.151 71.0951C889.373 71.0951 889.631 71.1129 889.924 71.1484C890.226 71.175 890.515 71.215 890.79 71.2683C891.066 71.3128 891.279 71.3616 891.43 71.415L891.323 72.0814C891.021 72.0103 890.639 71.9525 890.177 71.9081C889.715 71.8548 889.28 71.8281 888.871 71.8281C888.489 71.8281 888.12 71.837 887.765 71.8548C887.418 71.8725 887.192 71.8903 887.085 71.9081V74.9202H889.458C890.275 74.9202 890.866 75.1024 891.23 75.4667C891.603 75.831 891.79 76.4174 891.79 77.226ZM894.921 79.625H894.054L896.853 72.0147H892.855L892.775 71.295H897.786V71.8281L894.921 79.625ZM901.946 71.0951C902.665 71.0951 903.234 71.1662 903.652 71.3083C904.069 71.4416 904.367 71.6726 904.545 72.0014C904.722 72.3213 904.811 72.7611 904.811 73.3209C904.811 73.7829 904.758 74.2272 904.651 74.6537C904.553 75.0713 904.416 75.4089 904.238 75.6666V75.7599C904.442 75.8932 904.598 76.1064 904.704 76.3996C904.82 76.684 904.878 76.9994 904.878 77.3459C904.878 77.8701 904.838 78.2966 904.758 78.6254C904.687 78.9453 904.549 79.1941 904.345 79.3718C904.14 79.5495 903.843 79.6694 903.452 79.7316C903.07 79.7938 902.568 79.8249 901.946 79.8249C901.324 79.8249 900.817 79.7894 900.426 79.7183C900.035 79.6561 899.733 79.5361 899.52 79.3584C899.307 79.1807 899.16 78.9319 899.08 78.6121C899.009 78.2833 898.973 77.8613 898.973 77.3459C898.973 76.875 899.036 76.4396 899.16 76.0398C899.293 75.6399 899.471 75.3423 899.693 75.1468V75.0535C899.498 74.8758 899.342 74.6359 899.227 74.3338C899.111 74.0317 899.053 73.694 899.053 73.3209C899.053 72.77 899.142 72.3346 899.32 72.0147C899.507 71.686 899.809 71.4505 900.226 71.3083C900.653 71.1662 901.226 71.0951 901.946 71.0951ZM900.373 75.3067C900.24 75.2534 900.137 75.2268 900.066 75.2268C899.951 75.2268 899.893 75.3023 899.893 75.4533V79.1319H902.879C903.305 79.1319 903.589 79.0963 903.732 79.0252C903.874 78.9453 903.945 78.7809 903.945 78.5321L903.958 76.4929L900.373 75.3067ZM903.412 75.4267C903.456 75.4356 903.5 75.4489 903.545 75.4667C903.589 75.4755 903.625 75.48 903.652 75.48C903.74 75.48 903.816 75.4578 903.878 75.4134C903.94 75.36 903.971 75.3023 903.971 75.2401V71.7881H900.946C900.528 71.7881 900.248 71.8281 900.106 71.9081C899.964 71.9792 899.893 72.1391 899.893 72.3879V74.2538L903.412 75.4267Z" fill="white"/>
<rect x="1198" y="38.125" width="36" height="36" rx="8" fill="white"/>
<path d="M1217.46 65.125V56.9144H1220.36L1220.79 53.7145H1217.46V51.6715C1217.46 50.7451 1217.73 50.1138 1219.13 50.1138L1220.91 50.113V47.2511C1220.6 47.2121 1219.55 47.125 1218.32 47.125C1215.75 47.125 1213.99 48.6162 1213.99 51.3547V53.7145H1211.09V56.9144H1213.99V65.1249H1217.46V65.125Z" fill="#CA5310"/>
<rect x="1250" y="38.125" width="36" height="36" rx="8" fill="white"/>
<path d="M1271.03 48.8262V48.823H1271.87L1272.18 48.8846C1272.39 48.9246 1272.57 48.977 1272.74 49.0418C1272.91 49.1066 1273.07 49.1823 1273.23 49.2687C1273.38 49.3552 1273.53 49.4432 1273.65 49.5329C1273.78 49.6215 1273.89 49.7155 1273.99 49.815C1274.09 49.9154 1274.25 49.9414 1274.46 49.8928C1274.67 49.8441 1274.9 49.7766 1275.14 49.6901C1275.39 49.6037 1275.63 49.5065 1275.86 49.3984C1276.1 49.2903 1276.25 49.2217 1276.3 49.1925C1276.35 49.1623 1276.38 49.1461 1276.38 49.1439L1276.38 49.1391L1276.4 49.131L1276.42 49.1229L1276.43 49.1147L1276.45 49.1066L1276.45 49.1018L1276.46 49.0985L1276.46 49.0953L1276.46 49.0904L1276.48 49.0856L1276.5 49.0823L1276.49 49.1066L1276.49 49.131L1276.48 49.1553L1276.47 49.1796L1276.46 49.1958L1276.46 49.212L1276.45 49.2363C1276.44 49.2525 1276.44 49.2741 1276.43 49.3011C1276.43 49.3282 1276.38 49.4362 1276.28 49.6253C1276.18 49.8144 1276.06 50.0062 1275.91 50.2007C1275.77 50.3952 1275.64 50.5422 1275.52 50.6416C1275.4 50.7421 1275.33 50.8123 1275.29 50.8523C1275.25 50.8933 1275.2 50.9312 1275.15 50.9657L1275.07 51.0192L1275.05 51.0273L1275.04 51.0354L1275.03 51.0403L1275.03 51.0436L1275.02 51.0468L1275.02 51.0517L1275 51.0598L1274.99 51.0679L1274.98 51.0727L1274.98 51.076L1274.97 51.0792L1274.97 51.0841L1274.97 51.0889L1274.96 51.0922L1274.96 51.0954L1274.95 51.1003H1275.04L1275.49 51.003C1275.79 50.9382 1276.08 50.8599 1276.36 50.768L1276.8 50.6221L1276.85 50.6059L1276.87 50.5978L1276.89 50.5897L1276.9 50.5816L1276.92 50.5735L1276.94 50.5654L1276.97 50.5605L1277 50.5573V50.5897L1276.99 50.593L1276.98 50.5978L1276.98 50.6027L1276.98 50.6059L1276.97 50.6092L1276.97 50.614L1276.96 50.6189L1276.96 50.6221L1276.95 50.6254L1276.95 50.6302L1276.95 50.6351L1276.94 50.6383L1276.94 50.6545L1276.93 50.6708L1276.92 50.674C1276.92 50.6772 1276.85 50.7691 1276.72 50.9495C1276.58 51.1311 1276.51 51.2229 1276.5 51.2251C1276.49 51.2283 1276.47 51.2445 1276.45 51.2737C1276.43 51.304 1276.32 51.4244 1276.11 51.6352C1275.9 51.8459 1275.69 52.0333 1275.49 52.1976C1275.28 52.3629 1275.18 52.5661 1275.18 52.807C1275.18 53.0469 1275.16 53.3181 1275.14 53.6207C1275.12 53.9232 1275.08 54.2501 1275.02 54.6013C1274.96 54.9525 1274.87 55.3496 1274.74 55.7926C1274.62 56.2356 1274.47 56.6679 1274.29 57.0893C1274.11 57.5107 1273.92 57.8889 1273.73 58.2239C1273.53 58.5589 1273.36 58.8425 1273.19 59.0748C1273.03 59.3071 1272.87 59.5259 1272.7 59.7313C1272.53 59.9366 1272.32 60.1678 1272.06 60.425C1271.81 60.6811 1271.66 60.8215 1271.64 60.8464C1271.62 60.8702 1271.51 60.9588 1271.32 61.1122C1271.14 61.2667 1270.94 61.4212 1270.72 61.5758C1270.51 61.7292 1270.31 61.8573 1270.13 61.9599C1269.96 62.0626 1269.74 62.1798 1269.49 62.3116C1269.24 62.4445 1268.97 62.5677 1268.67 62.6812C1268.38 62.7946 1268.07 62.9 1267.75 62.9973C1267.42 63.0945 1267.11 63.1701 1266.81 63.2242C1266.5 63.2782 1266.16 63.3241 1265.78 63.3619L1265.2 63.4187V63.4268H1264.15V63.4187L1264.01 63.4106C1263.92 63.4052 1263.84 63.3998 1263.78 63.3944C1263.72 63.389 1263.5 63.3592 1263.11 63.3052C1262.72 63.2512 1262.41 63.1971 1262.19 63.1431C1261.97 63.0891 1261.64 62.9864 1261.2 62.8352C1260.76 62.6839 1260.39 62.531 1260.07 62.3765C1259.76 62.223 1259.57 62.1258 1259.49 62.0847C1259.41 62.0447 1259.32 61.995 1259.23 61.9356L1259.08 61.8465L1259.08 61.8416L1259.07 61.8384L1259.07 61.8351L1259.06 61.8302L1259.05 61.8221L1259.03 61.814L1259.03 61.8092L1259.02 61.8059L1259.02 61.8027L1259.02 61.7978L1259.01 61.793L1259.01 61.7897H1259V61.7573L1259.02 61.7605L1259.03 61.7654L1259.11 61.7735C1259.15 61.7789 1259.29 61.787 1259.5 61.7978C1259.72 61.8086 1259.95 61.8086 1260.19 61.7978C1260.44 61.787 1260.69 61.7627 1260.94 61.7249C1261.19 61.6871 1261.49 61.6222 1261.84 61.5304C1262.19 61.4385 1262.5 61.3294 1262.79 61.203C1263.08 61.0755 1263.29 60.9804 1263.41 60.9177C1263.53 60.8561 1263.72 60.7416 1263.97 60.5741L1264.34 60.3229L1264.34 60.318L1264.35 60.3148L1264.35 60.3115L1264.36 60.3067L1264.36 60.3018L1264.36 60.2986L1264.37 60.2953L1264.37 60.2904L1264.39 60.2856L1264.4 60.2823L1264.41 60.2661L1264.41 60.2499L1264.42 60.2467L1264.42 60.2418L1264.29 60.2337C1264.2 60.2283 1264.12 60.2229 1264.04 60.2175C1263.96 60.2121 1263.83 60.1878 1263.66 60.1446C1263.49 60.1013 1263.3 60.0365 1263.1 59.9501C1262.9 59.8636 1262.7 59.761 1262.51 59.6421C1262.32 59.5233 1262.19 59.4244 1262.1 59.3455C1262.02 59.2677 1261.91 59.1575 1261.78 59.0148C1261.65 58.8711 1261.53 58.7236 1261.43 58.5724C1261.34 58.4211 1261.24 58.2466 1261.16 58.0488L1261.02 57.7538L1261.01 57.7295L1261 57.7052L1261 57.689L1261 57.6728L1261.02 57.676L1261.05 57.6809L1261.22 57.7052C1261.34 57.7214 1261.53 57.7268 1261.78 57.7214C1262.04 57.716 1262.21 57.7052 1262.31 57.689C1262.41 57.6728 1262.47 57.662 1262.49 57.6566L1262.52 57.6485L1262.56 57.6404L1262.6 57.6323L1262.61 57.6274L1262.61 57.6242L1262.62 57.6209L1262.62 57.6161L1262.59 57.608L1262.55 57.5999L1262.52 57.5917L1262.49 57.5836L1262.46 57.5755C1262.44 57.5701 1262.4 57.5593 1262.34 57.5431C1262.29 57.5269 1262.14 57.4675 1261.91 57.3648C1261.67 57.2622 1261.48 57.1622 1261.34 57.065C1261.2 56.9674 1261.06 56.8608 1260.93 56.7457C1260.81 56.629 1260.67 56.4788 1260.52 56.2951C1260.37 56.1114 1260.23 55.898 1260.11 55.6548C1259.99 55.4117 1259.9 55.1794 1259.84 54.9579C1259.78 54.7377 1259.75 54.5125 1259.73 54.2852L1259.7 53.9449L1259.71 53.9481L1259.73 53.953L1259.75 53.9611L1259.76 53.9692L1259.78 53.9773L1259.8 53.9854L1260.05 54.0988C1260.21 54.1745 1260.42 54.2393 1260.67 54.2933C1260.92 54.3474 1261.07 54.3771 1261.12 54.3825L1261.19 54.3906H1261.34L1261.33 54.3857L1261.33 54.3825L1261.32 54.3792L1261.32 54.3744L1261.32 54.3695L1261.31 54.3663L1261.31 54.363L1261.3 54.3582L1261.29 54.3501L1261.27 54.342L1261.27 54.3371L1261.26 54.3339L1261.26 54.3306L1261.26 54.3258L1261.24 54.3176L1261.22 54.3095L1261.22 54.3047C1261.22 54.3025 1261.17 54.2679 1261.08 54.2009C1260.99 54.1329 1260.9 54.0448 1260.8 53.9368C1260.7 53.8287 1260.61 53.7152 1260.51 53.5964C1260.41 53.4772 1260.33 53.3498 1260.25 53.2155C1260.17 53.0804 1260.09 52.9086 1260.01 52.7C1259.93 52.4926 1259.86 52.2835 1259.82 52.0728C1259.78 51.8621 1259.75 51.6541 1259.75 51.4488C1259.74 51.2434 1259.75 51.0679 1259.76 50.922C1259.78 50.7761 1259.81 50.6113 1259.86 50.4276C1259.91 50.2439 1259.98 50.0494 1260.07 49.8441L1260.21 49.5362L1260.22 49.5119L1260.23 49.4875L1260.23 49.4843L1260.23 49.4794L1260.24 49.4746L1260.24 49.4713L1260.25 49.4746L1260.25 49.4794L1260.25 49.4843L1260.26 49.4875L1260.26 49.4908L1260.27 49.4956L1260.27 49.5005L1260.27 49.5038L1260.28 49.52L1260.29 49.5362L1260.3 49.5394L1260.3 49.5443L1260.52 49.7874C1260.66 49.9495 1260.84 50.1305 1261.04 50.3304C1261.24 50.5303 1261.35 50.634 1261.37 50.6416C1261.39 50.6502 1261.42 50.6751 1261.45 50.7161C1261.48 50.7561 1261.59 50.8518 1261.78 51.003C1261.96 51.1543 1262.2 51.3299 1262.5 51.5298C1262.8 51.7297 1263.13 51.9269 1263.49 52.1214C1263.85 52.3159 1264.24 52.4915 1264.66 52.6482C1265.07 52.8049 1265.37 52.9075 1265.53 52.9561C1265.7 53.0048 1265.99 53.0669 1266.39 53.1425C1266.8 53.2182 1267.1 53.2668 1267.31 53.2884C1267.52 53.31 1267.66 53.3225 1267.73 53.3257L1267.85 53.3289L1267.84 53.3046L1267.84 53.2803L1267.81 53.0777C1267.78 52.9426 1267.77 52.7535 1267.77 52.5104C1267.77 52.2673 1267.79 52.0431 1267.83 51.8378C1267.87 51.6325 1267.92 51.4244 1268 51.2137C1268.08 51.003 1268.15 50.8339 1268.22 50.7064C1268.3 50.58 1268.39 50.4357 1268.51 50.2737C1268.63 50.1116 1268.78 49.9441 1268.97 49.7712C1269.16 49.5983 1269.38 49.4443 1269.62 49.3093C1269.87 49.1742 1270.09 49.0715 1270.3 49.0013C1270.5 48.9311 1270.68 48.8851 1270.82 48.8635C1270.96 48.8419 1271.03 48.8295 1271.03 48.8262Z" fill="#CA5310"/>
<rect x="1302" y="38.125" width="36" height="36" rx="8" fill="white"/>
<path fill-rule="evenodd" clip-rule="evenodd" d="M1311 56.125C1311 52.5299 1311 50.7323 1311.86 49.4376C1312.24 48.8594 1312.73 48.3642 1313.31 47.9817C1314.61 47.125 1316.4 47.125 1320 47.125C1323.6 47.125 1325.39 47.125 1326.69 47.9817C1327.27 48.3642 1327.76 48.8594 1328.14 49.4376C1329 50.7323 1329 52.5299 1329 56.125C1329 59.7201 1329 61.5177 1328.14 62.8124C1327.76 63.3906 1327.27 63.8858 1326.69 64.2683C1325.39 65.125 1323.6 65.125 1320 65.125C1316.4 65.125 1314.61 65.125 1313.31 64.2683C1312.73 63.8858 1312.24 63.3906 1311.86 62.8124C1311 61.5177 1311 59.7201 1311 56.125ZM1324.66 56.1252C1324.66 58.6985 1322.57 60.7846 1320 60.7846C1317.43 60.7846 1315.34 58.6985 1315.34 56.1252C1315.34 53.5519 1317.43 51.4658 1320 51.4658C1322.57 51.4658 1324.66 53.5519 1324.66 56.1252ZM1320 59.2082C1321.7 59.2082 1323.08 57.8279 1323.08 56.1252C1323.08 54.4225 1321.7 53.0422 1320 53.0422C1318.3 53.0422 1316.92 54.4225 1316.92 56.1252C1316.92 57.8279 1318.3 59.2082 1320 59.2082ZM1324.84 52.3265C1325.45 52.3265 1325.94 51.8364 1325.94 51.2317C1325.94 50.6271 1325.45 50.1369 1324.84 50.1369C1324.24 50.1369 1323.75 50.6271 1323.75 51.2317C1323.75 51.8364 1324.24 52.3265 1324.84 52.3265Z" fill="#CA5310"/>
<defs>
<clipPath id="clip0_258_2836">
<rect width="56.25" height="56.25" fill="white" transform="translate(90 16)"/>
</clipPath>
</defs>
</svg>
