<svg width="36" height="37" viewBox="0 0 36 37" fill="none" xmlns="http://www.w3.org/2000/svg">
<rect y="0.125" width="36" height="36" rx="8" fill="white"/>
<path fill-rule="evenodd" clip-rule="evenodd" d="M9 18.125C9 14.5299 9 12.7323 9.85669 11.4376C10.2392 10.8594 10.7344 10.3642 11.3126 9.98169C12.6073 9.125 14.4049 9.125 18 9.125C21.5951 9.125 23.3927 9.125 24.6874 9.98169C25.2656 10.3642 25.7608 10.8594 26.1433 11.4376C27 12.7323 27 14.5299 27 18.125C27 21.7201 27 23.5177 26.1433 24.8124C25.7608 25.3906 25.2656 25.8858 24.6874 26.2683C23.3927 27.125 21.5951 27.125 18 27.125C14.4049 27.125 12.6073 27.125 11.3126 26.2683C10.7344 25.8858 10.2392 25.3906 9.85669 24.8124C9 23.5177 9 21.7201 9 18.125ZM22.6593 18.1252C22.6593 20.6985 20.5732 22.7846 17.9998 22.7846C15.4265 22.7846 13.3404 20.6985 13.3404 18.1252C13.3404 15.5519 15.4265 13.4658 17.9998 13.4658C20.5732 13.4658 22.6593 15.5519 22.6593 18.1252ZM17.9998 21.2082C19.7025 21.2082 21.0828 19.8279 21.0828 18.1252C21.0828 16.4225 19.7025 15.0422 17.9998 15.0422C16.2971 15.0422 14.9168 16.4225 14.9168 18.1252C14.9168 19.8279 16.2971 21.2082 17.9998 21.2082ZM22.8433 14.3265C23.4479 14.3265 23.9381 13.8364 23.9381 13.2317C23.9381 12.6271 23.4479 12.1369 22.8433 12.1369C22.2386 12.1369 21.7485 12.6271 21.7485 13.2317C21.7485 13.8364 22.2386 14.3265 22.8433 14.3265Z" fill="#CA5310"/>
</svg>
