<svg width="46" height="45" viewBox="0 0 46 45" fill="none" xmlns="http://www.w3.org/2000/svg">
<path d="M44.1543 7.30175C36.9216 2.47823 30.0856 0.090656 23.2565 0.00246467C16.3411 -0.0827706 9.51973 2.0419 2.39939 6.50902C1.70198 6.94245 1.20228 7.63201 1.00752 8.4297C0.812754 9.22739 0.938456 10.0696 1.35764 10.7757L20.5317 43.4429C20.8066 43.9166 21.2011 44.3098 21.6758 44.583C22.1504 44.8563 22.6885 45.0001 23.2362 45H23.252C23.7969 45.0026 24.3331 44.8627 24.8073 44.5941C25.2815 44.3255 25.6772 43.9377 25.9552 43.469L45.1076 11.5478C45.5257 10.8534 45.66 10.0245 45.4824 9.23364C45.3048 8.44275 44.8291 7.7508 44.1543 7.30175ZM42.4039 9.92523L23.2511 41.8468L4.07522 9.18008C10.5355 5.12683 16.6789 3.15331 22.8427 3.15331C22.9671 3.15331 23.0915 3.1541 23.2159 3.15568C29.4173 3.23569 35.694 5.45013 42.4048 9.92523H42.4039Z" fill="black"/>
<path d="M20.041 19.6571C19.9474 19.1248 19.6981 18.6322 19.3246 18.2416C18.951 17.851 18.47 17.58 17.9424 17.4628C17.4148 17.3455 16.8643 17.3874 16.3605 17.583C15.8567 17.7787 15.4223 18.1194 15.1121 18.5619C14.8019 19.0045 14.6299 19.5292 14.6179 20.0695C14.6058 20.6098 14.7543 21.1416 15.0445 21.5975C15.3347 22.0535 15.7536 22.4131 16.2482 22.631C16.7428 22.8488 17.2909 22.9151 17.8232 22.8215C18.5369 22.6959 19.1715 22.292 19.5874 21.6986C20.0033 21.1052 20.1665 20.3708 20.041 19.6571Z" fill="black"/>
<path d="M30.1129 26.8818C31.2583 25.8991 31.3902 24.174 30.4075 23.0286C29.4249 21.8832 27.6998 21.7513 26.5544 22.7339C25.409 23.7166 25.2771 25.4417 26.2597 26.5871C27.2424 27.7325 28.9675 27.8644 30.1129 26.8818Z" fill="black"/>
<path d="M21.0929 27.9589L19.0742 30.3813L23.804 34.3229L25.8227 31.9005L21.0929 27.9589Z" fill="black"/>
<path d="M28.9881 13.5042L22.6816 15.8691L23.7888 18.8216L30.0952 16.4567L28.9881 13.5042Z" fill="black"/>
<path d="M9.88413 14.7393C13.1643 12.6813 18.2151 10.2488 23.76 10.2488C23.8411 10.2488 23.9223 10.2494 24.0037 10.2504C28.6228 10.3095 32.8601 11.7285 37.3387 14.7154L39.0882 12.0921C34.08 8.75233 29.2997 7.16518 24.0443 7.09739C17.6342 7.01806 11.8958 9.75525 8.20898 12.0682L9.88413 14.7393Z" fill="black"/>
</svg>
