<svg width="46" height="45" viewBox="0 0 46 45" fill="none" xmlns="http://www.w3.org/2000/svg">
<path d="M39.4973 3.52405C35.6443 1.25147 30.558 0 25.1756 0H20.7418C15.3595 0 10.273 1.25147 6.42009 3.52405C2.28006 5.9659 0 9.31148 0 12.9445V14.6772H45.9174V12.9445C45.9174 9.31148 43.6373 5.9659 39.4973 3.52405ZM3.76869 11.2117C5.3014 6.86681 12.4524 3.46546 20.742 3.46546H25.1758C33.4654 3.46546 40.6164 6.86681 42.1491 11.2117H3.76869Z" fill="black"/>
<path d="M45.9174 26.8064H0V30.2719H45.9174V26.8064Z" fill="black"/>
<path d="M36.7336 18.147C34.0495 18.147 32.6432 18.8103 31.4025 19.3955C30.3159 19.9081 29.4575 20.3129 27.5498 20.3129C25.642 20.3129 24.7839 19.9081 23.6973 19.3955C22.4566 18.8107 21.0504 18.147 18.3664 18.147C15.6824 18.147 14.2762 18.8103 13.0356 19.3955C11.949 19.9081 11.0909 20.3129 9.18326 20.3129C7.27563 20.3129 6.41739 19.9081 5.33086 19.3955C4.09022 18.8107 2.684 18.147 0 18.147V21.6124C1.90763 21.6124 2.76587 22.0172 3.8524 22.5298C5.09304 23.1146 6.49926 23.7783 9.18326 23.7783C11.8673 23.7783 13.2734 23.115 14.514 22.5298C15.6005 22.0172 16.4588 21.6124 18.3664 21.6124C20.274 21.6124 21.1323 22.0172 22.2188 22.5298C23.4596 23.1146 24.8657 23.7783 27.5498 23.7783C30.2339 23.7783 31.6401 23.115 32.8808 22.5298C33.9675 22.0172 34.8257 21.6124 36.7336 21.6124C38.6414 21.6124 39.4997 22.0172 40.5863 22.5298C41.827 23.1146 43.2333 23.7783 45.9174 23.7783V20.3129C44.0095 20.3129 43.1513 19.9081 42.0647 19.3955C40.8236 18.8103 39.4174 18.147 36.7336 18.147Z" fill="black"/>
<path d="M0 42.401C0.00080252 43.09 0.274893 43.7507 0.762144 44.2379C1.2494 44.7252 1.91002 44.9993 2.5991 45.0001H43.3183C44.0074 44.9993 44.668 44.7252 45.1552 44.2379C45.6425 43.7507 45.9166 43.09 45.9174 42.401V33.7373H0V42.401ZM3.46546 37.2028H42.4519V41.5346H3.46546V37.2028Z" fill="black"/>
</svg>
