<svg width="40" height="30" viewBox="0 0 40 30" fill="none" xmlns="http://www.w3.org/2000/svg">
<path d="M35.414 5.6079C36.465 5.49366 37.4854 5.29321 38.4679 5.0118C37.6493 5.87949 36.7168 6.65954 35.6924 7.32936L35.4523 7.48636L35.4666 7.7729C35.4722 7.88385 35.478 8.1043 35.484 8.3519C35.4844 8.38768 35.4874 8.41866 35.4903 8.44223C35.4925 8.45948 35.495 8.47576 35.4969 8.4874C35.4963 8.49224 35.4956 8.4974 35.495 8.5027C35.4925 8.52334 35.49 8.5518 35.49 8.58517H35.4899L35.4901 8.59431C35.4961 8.92179 35.5 9.24424 35.5 9.39531C35.5 18.7704 27.3017 28.8334 12.694 28.8334C8.9469 28.8334 5.1921 27.762 2.00081 26.2067C4.80656 26.2037 6.73504 26.0207 8.31941 25.5785C9.92964 25.1291 11.1538 24.4204 12.5597 23.4211L13.8012 22.5386L12.2782 22.5136C10.5801 22.4858 8.84726 22.0783 7.42616 21.3383C6.30154 20.7528 5.39591 19.9728 4.8388 19.0297C5.00743 19.05 5.18459 19.0704 5.36098 19.0897C5.94008 19.1533 6.55921 19.211 6.852 19.211C7.22794 19.211 7.81069 19.2009 8.40042 19.1382C8.97243 19.0773 9.62141 18.9606 10.0875 18.7116L11.3535 18.0355L9.94149 17.7786C8.15588 17.4538 6.26899 16.708 4.841 15.6314C3.6817 14.7574 2.86319 13.6981 2.5951 12.4967C3.56462 12.9861 4.56979 13.1594 5.518 13.1594C6.2858 13.1594 7.01704 13.0474 7.67181 12.8944L9.10424 12.5595L7.76445 11.9521C4.42412 10.4377 2.458 8.0747 2.458 5.82853C2.458 4.86071 2.55102 3.88024 2.73998 3.10642C6.42448 6.94865 11.4683 9.89531 18 9.89531H18.5497L18.4978 9.3481C18.4898 9.26366 18.4889 9.12299 18.4917 8.95244C18.4926 8.89598 18.494 8.83501 18.4953 8.77438C18.4977 8.6701 18.5 8.5668 18.5 8.48911C18.5 4.30668 22.2587 0.833374 27 0.833374C29.3437 0.833374 31.4529 1.68926 32.9868 3.06043L33.1829 3.23578L33.4385 3.17342C33.4763 3.1642 33.5106 3.15392 33.5325 3.14736L33.5375 3.14587C33.5548 3.14069 33.5657 3.13753 33.5744 3.13522C35.001 2.87695 37.1429 2.15881 38.7973 1.4533C38.4972 1.85573 38.1326 2.26809 37.728 2.66848C36.8782 3.5096 35.9059 4.24524 35.1213 4.67148L35.414 5.6079ZM14.7977 25.1828L15.1126 26.1015C26.3709 25.094 32.5 17.0659 32.5 9.39531V9.39446V9.3936V9.39273V9.39184V9.39094V9.39002V9.38909V9.38815V9.38719V9.38622V9.38524V9.38424V9.38323V9.3822V9.38117V9.38011V9.37905V9.37797V9.37688V9.37578V9.37467V9.37354V9.37239V9.37124V9.37007V9.36889V9.3677V9.3665V9.36528V9.36405V9.36281V9.36156V9.36029V9.35901V9.35772V9.35642V9.3551V9.35378V9.35244V9.35109V9.34973V9.34836V9.34697V9.34558V9.34417V9.34275V9.34132V9.33988V9.33843V9.33696V9.33549V9.334V9.33251V9.331V9.32948V9.32795V9.32641V9.32486V9.3233V9.32173V9.32015V9.31855V9.31695V9.31534V9.31372V9.31208V9.31044V9.30879V9.30712V9.30545V9.30377V9.30207V9.30037V9.29866V9.29694V9.29521V9.29347V9.29172V9.28996V9.28819V9.28641V9.28462V9.28283V9.28102V9.27921V9.27738V9.27555V9.27371V9.27186V9.27V9.26814V9.26626V9.26438V9.26249V9.26059V9.25868V9.25676V9.25484V9.2529V9.25096V9.24901V9.24706V9.24509V9.24312V9.24114V9.23915V9.23715V9.23515V9.23314V9.23112V9.2291V9.22706V9.22502V9.22297V9.22092V9.21886V9.21679V9.21472V9.21263V9.21054V9.20845V9.20635V9.20424V9.20212V9.2V9.19787V9.19573V9.19359V9.19145V9.18929V9.18713V9.18497V9.18279V9.18062V9.17843V9.17624V9.17405V9.17185V9.16964V9.16743V9.16521V9.16299V9.16076V9.15852V9.15628V9.15404V9.15179V9.14954V9.14728V9.14501V9.14274V9.14047V9.13819V9.1359V9.13362V9.13132V9.12903V9.12672V9.12442V9.12211V9.11979V9.11747V9.11515V9.11282V9.11049V9.10815V9.10581V9.10347V9.10112V9.09877V9.09642V9.09406V9.0917V9.08933V9.08696V9.08459V9.08222V9.07984V9.07746V9.07507V9.07268V9.07029V9.0679V9.0655V9.0631V9.0607V9.0583V9.05589V9.05348V9.05107V9.04865V9.04624V9.04382V9.04139V9.03897V9.03654V9.03411V9.03168V9.02925V9.02682V9.02438V9.02195V9.01951V9.01707V9.01462V9.01218V9.00973V9.00729V9.00484V9.00239V8.99994V8.99749V8.99503V8.99258V8.99013V8.98767V8.98521V8.98276V8.9803V8.97784V8.97538V8.97292V8.97046V8.968V8.96554V8.96308V8.96062V8.95816V8.95569V8.95323V8.95077V8.94831V8.94585V8.94339V8.94093V8.93847V8.93601V8.93355V8.93109V8.92863V8.92617V8.92371V8.92126V8.9188V8.91635V8.91389V8.91144V8.90899V8.90654V8.90409V8.90164V8.8992V8.89675V8.89431V8.89187V8.88942V8.88699V8.88455V8.88211V8.87968V8.87725V8.87482V8.87239V8.86996V8.86754V8.86512V8.8627V8.86028V8.85787V8.85546V8.85305V8.85064V8.84824V8.84583V8.84343V8.84104V8.83864V8.83626V8.83387V8.83148V8.8291V8.82672V8.82435V8.82198V8.81961V8.81724V8.81488V8.81253V8.81017V8.80782V8.80548V8.80313V8.80079V8.79846V8.79613V8.7938V8.79148V8.78916V8.78684V8.78453V8.78223V8.77993V8.77763V8.77534V8.77305V8.77077V8.76849V8.76621V8.76395V8.76168V8.75942V8.75717V8.75492V8.75268V8.75044V8.7482V8.74598V8.74375V8.74154V8.73933V8.73712V8.73492V8.73273V8.73054V8.72835V8.72618V8.72401V8.72184V8.71968V8.71753V8.71538V8.71324V8.71111V8.70898V8.70686V8.70474V8.70264V8.70053V8.69844V8.69635V8.69427V8.6922V8.69013V8.68807V8.68602V8.68397V8.68193V8.6799V8.67787V8.67586V8.67385V8.67184V8.66985V8.66786V8.66588V8.66391V8.66195V8.65999V8.65804V8.6561V8.65417V8.65225V8.65033V8.64843V8.64653V8.64464V8.64275V8.64088V8.63901V8.63716V8.63531V8.63347V8.63164V8.62982V8.62801V8.6262V8.62441V8.62262V8.62084V8.61908V8.61732V8.61557V8.61383V8.6121V8.61038V8.60867V8.60697V8.60528V8.6036V8.60192V8.60026V8.59861V8.59697V8.59534V8.59372V8.59211V8.5905V8.58891V8.58733V8.58576V8.5842V8.58266V8.58112V8.57959V8.57807V8.57657V8.57507V8.57359V8.57212V8.57065V8.5692V8.56776V8.56633V8.56492V8.56351V8.56212V8.56074V8.55936V8.558V8.55666V8.55532V8.554V8.55268V8.55138V8.5501V8.54882V8.54755V8.5463V8.54506V8.54384V8.54262V8.54142V8.54023V8.53905V8.53788V8.53673V8.53559V8.53447V8.53335V8.53225V8.53116V8.53009V8.52903V8.52798V8.52694V8.52592V8.52491V8.52391V8.52293V8.52196V8.52101V8.52007V8.51914V8.51823V8.51733V8.51644V8.51557V8.51471V8.51387V8.51304V8.51222V8.51142V8.51063V8.50986V8.5091V8.50836V8.50763V8.50692V8.50622V8.50553V8.50486V8.50421V8.50357V8.50294V8.50233V8.50174V8.50116V8.50059V8.50004V8.49951V8.49899V8.49849V8.498V8.49753V8.49708V8.49663V8.49621V8.4958V8.49541V8.49503V8.49467V8.49433V8.494V8.49369V8.49339V8.49311V8.49285V8.49261V8.49238V8.49216V8.49197V8.49179V8.49162V8.49148V8.49135V8.49124V8.49114V8.49107V8.491V8.49093C32.5 5.66668 29.9907 3.45996 27 3.45996C24.0108 3.45996 21.5045 5.66694 21.5 8.48831V8.48911V12.5201H18C15.8201 12.5201 13.709 12.2341 11.6833 11.6737L11.0008 11.4849L11.0513 12.1912C11.2864 15.4851 12.9658 18.3617 14.5496 20.391C15.3451 21.4103 16.1256 22.2276 16.7079 22.7907C16.9145 22.9905 17.0964 23.1586 17.2456 23.2927C17.1129 23.4099 16.9527 23.549 16.7715 23.7015C16.2328 24.1551 15.5182 24.7199 14.7977 25.1828Z" fill="white" stroke="#CA5310"/>
</svg>
